<?xml version="1.0" encoding="UTF-8"?>
<svg id="_레이어_1" data-name="레이어_1" xmlns="http://www.w3.org/2000/svg" xmlns:xlink="http://www.w3.org/1999/xlink" version="1.1" viewBox="0 0 1300 90">
  <!-- Generator: Adobe Illustrator 29.1.0, SVG Export Plug-In . SVG Version: 2.1.0 Build 142)  -->
  <defs>
    <style>
      .st0, .st1 {
        fill: none;
      }

      .st1 {
        stroke: #231815;
        stroke-linecap: round;
        stroke-linejoin: round;
        stroke-width: 7px;
      }

      .st2 {
        fill: #deffbb;
      }

      .st3 {
        fill: #fff;
      }

      .st4 {
        clip-path: url(#clippath);
      }
    </style>
    <clipPath id="clippath">
      <path class="st0" d="M1069.19,17.7c-52.2.17-144.23.23-188.22-1.71-43.99-1.93-186.17-5.07-239.36-1.2s-84.9.97-137.07,0-97.18,1.93-186.17,1.93-94.11,1.3-119.68,1.3-79.68-5.02-79.68,27.94c0,35.09,72.28,30.52,108.08,30.52s76.97-.76,145.5-.76,189.24-.97,218.91-1.93c29.66-.97,105.36-4.84,168.78-1.93,63.42,2.9,146.28,1.93,190.26,1.93s83.88,1.93,104.34,1.93,126.13,10.81,126.13-29.76c0-22.46-9.3-28.62-111.81-28.28Z"/>
    </clipPath>
  </defs>
  <path class="st3" d="M1069.19,17.7c-52.2.17-144.23.23-188.22-1.71-43.99-1.93-186.17-5.07-239.36-1.2s-84.9.97-137.07,0-97.18,1.93-186.17,1.93-94.11,1.3-119.68,1.3-79.68-5.02-79.68,27.94c0,35.09,72.28,30.52,108.08,30.52s76.97-.76,145.5-.76,189.24-.97,218.91-1.93c29.66-.97,105.36-4.84,168.78-1.93,63.42,2.9,146.28,1.93,190.26,1.93s83.88,1.93,104.34,1.93,126.13,10.81,126.13-29.76c0-22.46-9.3-28.62-111.81-28.28Z"/>
  <g class="st4">
    <rect class="st2" x="119" width="472" height="90"/>
  </g>
  <path class="st1" d="M1069.19,17.7c-52.2.17-144.23.23-188.22-1.71-43.99-1.93-186.17-5.07-239.36-1.2s-84.9.97-137.07,0-97.18,1.93-186.17,1.93-94.11,1.3-119.68,1.3-79.68-5.02-79.68,27.94c0,35.09,72.28,30.52,108.08,30.52s76.97-.76,145.5-.76,189.24-.97,218.91-1.93c29.66-.97,105.36-4.84,168.78-1.93,63.42,2.9,146.28,1.93,190.26,1.93s83.88,1.93,104.34,1.93,126.13,10.81,126.13-29.76c0-22.46-9.3-28.62-111.81-28.28Z"/>
</svg>