<?xml version="1.0" encoding="UTF-8"?>
<svg id="_레이어_1" data-name="레이어_1" xmlns="http://www.w3.org/2000/svg" version="1.1" viewBox="0 0 1100 200">
  <!-- Generator: Adobe Illustrator 29.1.0, SVG Export Plug-In . SVG Version: 2.1.0 Build 142)  -->
  <defs>
    <style>
      .st0 {
        fill: #ffea85;
      }

      .st0, .st1, .st2, .st3, .st4 {
        stroke: #231815;
        stroke-linecap: round;
        stroke-linejoin: round;
        stroke-width: 7px;
      }

      .st1 {
        fill: #e2b8f4;
      }

      .st2 {
        fill: #ffb8d0;
      }

      .st3 {
        fill: #bbe4ff;
      }

      .st4 {
        fill: #ffbc85;
      }
    </style>
  </defs>
  <path class="st3" d="M70.02,81.24s-1.94,5.72-2.42,15.9-2.42,22.29-2.42,31.99.97,32.96-18.9,34.89-17.93-31.99-17.93-37.8,2.91-28.11,4.36-41.19c1.45-13.09-.97-41.19,9.21-55.73s49.92,25.69,57.19,32.47,28.59,38.77,32.47,38.29,8.24-30.53,11.15-41.68c2.91-11.15,9.21-38.29,25.2-34.89s15.99,22.78,13.57,34.41-7.75,30.53-11.15,51.86c-3.39,21.32-12.12,47.5-27.14,47.5s-27.14-23.26-34.41-31.02-15.02-19.39-19.87-25.2c-4.85-5.82-18.9-19.78-18.9-19.78Z"/>
  <path class="st2" d="M199.07,157.36s-5.11-7.53-15.06-2.15-6.84,21.51-1.36,26.62,12.38,7.8,23.14,6.45c10.75-1.34,20.7-11.83,21.24-21.24.54-9.41-2.78-16-11.02-18.01-12.1-2.96-16.94,8.34-16.94,8.34Z"/>
  <path class="st3" d="M235.87,24.57c-5.1,7.65-3.1,9.92-1.55,28.82,1.55,18.91,3.1,33.47,5.58,50.52,2.48,17.05,5.58,36.57,6.2,41.53s1.24,15.5,5.89,20.15,9.3,7.75,16.43,4.34,12.54-11.79,10.99-21.39-4.65-31.92-4.34-32.85,14.43-3.41,21.55-4.34,29.46-.7,27.58-21.38c-.62-6.82-.09-17.39-19.84-15.5-20.81,2-34.81,2.73-34.81,2.73,0,0-1.76-10.16-1.45-15.12s-2.17-14.26,24.17-13.95,31.61-2.48,36.88-7.75,5.58-10.2,5.27-17.19,0-13.19-19.22-13.5-19.56.62-31.63,1.24-37.79-1.24-47.71,13.64Z"/>
  <path class="st1" d="M370.58,47.72c-1.5,5.62-5.95,16.31,5.44,22s25.62,1.55,27.69-8.8c2.07-10.35-2.59-18.12-8.8-21.48s-22.07-.15-24.33,8.28Z"/>
  <path class="st1" d="M377.05,92.76c-1.36,4.12-4.4,9.84-2.59,24.59,1.81,14.75,3.36,28.99,4.14,33.65s1.81,14.23,15.53,14.23,14.75-12.42,14.75-22.26.22-35.2-4.68-42.45-7.49-10.09-11.63-10.61-13.79-2.42-15.53,2.85Z"/>
  <path class="st2" d="M455.82,86.92s-7.83-1.34-16.25,2.23-14.22,6.18-14.51,10.25-3.77,12.77,6.96,16.25,23.79,3.77,23.79,3.77c0,0,5.22,25.83,10.45,33.37,5.22,7.54,27.28,23.79,37.43,11.03,10.16-12.77-4.06-20.31-6.96-22.34s-8.64-5.5-9.29-19.15c-.29-6.09,1.16-6.67,12.48-7.83s16.54-5.51,16.25-13.35c-.29-7.83-2.03-8.88-6.96-11.99s-9-5.13-23.79-4.26c0,0-.87-13.06-1.74-17.7s-2.21-16.83-13.44-17.12-14.42,6.38-14.71,12.77c-.29,6.38.29,24.08.29,24.08Z"/>
  <path class="st4" d="M552.03,75.02c7.07.67,17.83-5.22,16.96-17.41s-9-17.41-20.6-16.83-14.8,8.42-15.09,14.22c-.29,5.8-2.58,17.99,18.73,20.02Z"/>
  <path class="st4" d="M552.03,92.43c9.97-.66,18.99,4.93,19.28,21.47.29,16.54,2.61,24.96,1.45,34.82-1.16,9.87-3.48,18.86-13.64,17.99-10.16-.87-14.8-9.58-16.25-22.34s-1.74-29.22-2.03-35.07c-.29-5.85-2-16,11.19-16.87Z"/>
  <path class="st0" d="M700.74,57.64c0-5.25-2.46-9.54-14.32-9.54s-23.82.56-30.36,2.06-15.14,4.11-14.76,19.81c.37,15.7,2.43,26.35,4.11,36.44,1.68,10.09,4.67,24.1,5.42,28.78.75,4.67,4.11,15.14,24.29,16.26,20.18,1.12,27.09,0,32.33-2.24s4.3-8.41,3.92-11.4c-.37-2.99-1.49-10.65-12.89-11.77s-17.75-1.12-17.75-1.12l-2.62-11.02s2.43,0,11.4-.75c8.97-.75,15.51-4.42,14.95-13.14s-2.43-14.14-14.2-13.77-17.94,2.8-20.18,2.06-2.06-5.05-2.24-6.91.76-6.35,6.73-6.17c5.6.18,8.28-.49,11.67-.66,6.52-.33,14.52-5.35,14.52-16.9Z"/>
  <path class="st0" d="M742.08,81.85s-4.1-1.68-13.22,0-13.78,5.96-13.22,13.59,2.79,10.61,10.06,11.92,13.97.93,14.15,3.54,2.42,16.2,5.21,23.65,4.47,13.78,15.08,12.48,9.68-9.87,8.94-35.01c-.74-25.14-.19-41.9-.74-45.06s-4.84-10.43-11.73-10.06-14.16,2.61-14.06,12.29-.46,12.66-.46,12.66Z"/>
  <path class="st0" d="M784.72,59.5c-2.96,4.68-5.03,13.22-1.86,31.66,3.17,18.43,4.84,31.84,7.26,37.99s3.17,14.9,13.59,14.15,11.17-9.31,10.8-27.56-4.28-33.7-5.59-39.29-5.25-20.86-11.1-20.86-11.25.96-13.11,3.91Z"/>
  <path class="st0" d="M887.68,67.23c3.66-7.31,9.82-24.44-3.88-26.27s-21.7,13.25-25.86,20.1-11.84,16.45-14.35,30.16,1.6,19.65,5.94,20.1,6.4.23,11.19-2.06c4.8-2.28,12.34-16.91,12.34-16.91,0,0,9.37,7.54,14.85,11.88s13.02,13.71,23.53,10.28c10.51-3.43,12.11-14.62,4.11-22.62-8-8-8.68-9.69-13.48-13.87-4.8-4.18-14.39-10.8-14.39-10.8Z"/>
  <path class="st0" d="M838.88,158.98c-3.23,2.83-5.43,8.42-2.99,15.76,2.45,7.34,6.25,11.68,19.29,12.5,13.04.82,17.39-1.63,36.41,0,19.02,1.63,44.83,6.25,48.09-6.79,3.26-13.04-5.16-17.12-11.68-19.29-6.52-2.17-14.67-1.63-28.53-2.17s-23.64-2.45-30.16-2.72c-6.52-.27-26.08-1.09-30.43,2.72Z"/>
  <path class="st0" d="M980.1,65.04c1.91-2.18,7.36-1.91,15.54-1.91s16.36-.02,22.9-.01,18.27,1.37,19.08-9.26c.82-10.63,3-15.54-12.27-19.9s-19.63-.27-34.9,0-29.99-1.91-35.17,6-6.54,16.63-2.18,37.35c4.36,20.72,10.09,40.89,12.81,47.44,2.73,6.54,1.36,17.72,21.81,17.18,20.45-.55,28.35-1.36,38.17-2.73,9.81-1.36,19.36-3.27,20.17-15.81.82-12.54-6-14.99-23.99-12.81-17.99,2.18-28.08,3.27-29.99,2.18-1.91-1.09-4.09-11.18-4.09-11.18,0,0,2.45-1.64,16.63-1.64s40.75-.27,41.5-8.18c.75-7.91,2.93-16.63-12.06-16.9s-18.81,0-28.9,0-19.08,1.09-22.63-.27c-3.54-1.36-2.45-9.54-2.45-9.54Z"/>
  <path class="st0" d="M963.47,167.27c.7,3.49,1.91,12.54,7.36,14.99,5.45,2.45,20.17,3,31.35,3.54,11.18.55,41.98-1.36,53.98-5.45s16.9-9.81,16.36-16.9-2.73-12.27-18.81-11.45-19.08,3.36-29.99,4-29.72.09-39.53,1.46c-9.81,1.36-22.08,2.98-20.72,9.81Z"/>
</svg>