<?xml version="1.0" encoding="UTF-8"?>
<svg id="_레이어_1" xmlns="http://www.w3.org/2000/svg" version="1.1" viewBox="0 0 810 240">
  <!-- Generator: Adobe Illustrator 29.1.0, SVG Export Plug-In . SVG Version: 2.1.0 Build 142)  -->
  <defs>
    <style>
      .st0 {
        fill: #ffe1e1;
        stroke: #231815;
        stroke-width: 7px;
      }

      .st0, .st1 {
        stroke-linecap: round;
        stroke-linejoin: round;
      }

      .st1 {
        fill: none;
        stroke: #c43f3f;
        stroke-width: 10px;
      }
    </style>
  </defs>
  <path class="st0" d="M25.98,74.71c14.75-29.57,59.8-52.63,111.85-56.1,52.05-3.47,88.56-5.21,116.29-5.78,27.73-.57,53.75-1.74,75.72-2.31s41.06,3.47,61.88,0,71.71-2.43,122.61-.06,139.43,3.29,156.15,4.68c34.7,2.89,46.27,8.1,76.34,13.88,30.07,5.78,41.06,31.81,49.74,56.1s4.63,43.38,0,57.83-16.19,39.33-29.5,49.16-38.75,22.56-77.5,24.87-34.7,6.36-90.22,9.25-45.11,5.21-96.01,4.05-79.81,3.5-134.75.3-92.54-4.93-126.08-4.93-68.82,4.05-126.08-5.78-89.06-28.92-101.21-52.05c-8.49-16.17-13.19-45.11,10.75-93.11h.02Z"/>
  <g>
    <path class="st1" d="M129.35,90.43s-5.58-.96-13.86-1.12-13.38.32-14.82,4.14-2.55,11.79-2.55,22.15.64,21.99,1.59,23.26,15.61,1.91,25.01,0"/>
    <path class="st1" d="M98.12,115.6s4.3-1.12,10.04-1.59,11.79-.96,11.79-.96"/>
    <line class="st1" x1="129.35" y1="113.05" x2="144.8" y2="113.05"/>
    <path class="st1" d="M146.07,85.01s.32,10.04,0,17.05-1.12,27.24-1.27,33.46.71,15.61.71,15.61"/>
    <path class="st1" d="M164.08,83.42s-.16,13.86,0,18.8.34,20.71-.07,24.85c-.41,4.14.25,22.62.25,22.62"/>
    <path class="st1" d="M187.66,118.95s9.47-2.33,16.09-8.28c8.6-7.73,14.82-23.74,14.82-23.74,0,0,6.03,13.33,13.06,20.23,8.28,8.13,15.77,11.79,15.77,11.79"/>
    <path class="st1" d="M182.56,147.63s9.72.64,22.94.64,24.06-.48,32.02-.64,14.66,0,14.66,0"/>
    <path class="st1" d="M327.66,86.93s-11.91-.72-23.55-1.23-22-1.1-22.78.62-2.85,10.25-3.11,20.35c-.26,10.09-2.07,16.31,6.47,17.6s39.86,2.07,39.86,2.07"/>
    <path class="st1" d="M324.04,106.75s-10.17.17-21.26.17h-20.41"/>
    <path class="st1" d="M269.43,147.56s10.61-.51,27.43,0,38.05.71,38.05.71"/>
    <path class="st1" d="M378.39,140.56s15.25-11.12,19.15-22.26c4.4-12.56,4.36-30.54,4.36-30.54,0,0-.91,33.65,21.71,51.25"/>
    <path class="st1" d="M442.06,79.48s-.26,7.25,0,24.07.78,42.19,1.29,51.76"/>
    <path class="st1" d="M465.89,85.85h18.34c6.32,0,18.75-.82,18.75-.82"/>
    <path class="st1" d="M465.89,120.08c20.58-12.43,20.58-34.23,20.58-34.23,0,0,.82,23.23,19.15,30.16"/>
    <path class="st1" d="M522.95,79.53s1.02,11.61,1.02,21.6v20.17"/>
    <line class="st1" x1="523.97" y1="102.97" x2="538.64" y2="102.97"/>
    <path class="st1" d="M476.29,135.57s18.34.82,26.69.82,18.75-.61,20.99,1.02,0,21.6,1.02,21.6"/>
    <path class="st1" d="M565.07,84.26c.68-.3,14.35-.16,17.08.68"/>
    <path class="st1" d="M554.6,100.59h38.26"/>
    <path class="st1" d="M613.12,88.29s-1.37,18.79-2.05,31.71-1.59,29.32-1.59,29.32"/>
    <path class="st1" d="M611.07,120s16.62.06,18.22,0"/>
    <path class="st1" d="M575.32,115.84c7.52,0,15.49,3.54,15.03,12.25-.46,8.7-3.87,12.8-12.98,13.83s-14.57-6.72-14.35-11.73,2.96-14.35,12.3-14.35h0Z"/>
    <path class="st1" d="M648.88,90.34h19.13c4.1,0,10.48-.46,11.16,2.5s-3.87,16.17-8.43,24.37c-4.55,8.2-17.31,22.32-17.31,22.32"/>
    <path class="st1" d="M704.06,86.72s.32,10.09-.14,25.75-.4,38.22-.4,38.22"/>
  </g>
</svg>