<?xml version="1.0" encoding="UTF-8"?>
<svg id="_레이어_1" data-name="레이어_1" xmlns="http://www.w3.org/2000/svg" xmlns:xlink="http://www.w3.org/1999/xlink" version="1.1" viewBox="0 0 730 370">
  <!-- Generator: Adobe Illustrator 29.1.0, SVG Export Plug-In . SVG Version: 2.1.0 Build 142)  -->
  <defs>
    <style>
      .st0 {
        fill: #a6d397;
      }

      .st1 {
        fill: #f29556;
      }

      .st1, .st2, .st3, .st4, .st5, .st6 {
        stroke: #231815;
        stroke-width: 6px;
      }

      .st1, .st2, .st3, .st5 {
        stroke-linecap: round;
        stroke-linejoin: round;
      }

      .st2, .st7 {
        fill: #ebbed8;
      }

      .st8 {
        fill: #8dd0de;
      }

      .st9 {
        fill: #f3f5c3;
      }

      .st10 {
        clip-path: url(#clippath-1);
      }

      .st11 {
        clip-path: url(#clippath-3);
      }

      .st12 {
        clip-path: url(#clippath-4);
      }

      .st13 {
        clip-path: url(#clippath-2);
      }

      .st3, .st4 {
        fill: none;
      }

      .st14, .st5 {
        fill: #f5f18b;
      }

      .st4, .st6 {
        stroke-miterlimit: 10;
      }

      .st15 {
        fill: #b1d9ae;
      }

      .st16 {
        fill: #75c6f0;
      }

      .st17 {
        clip-path: url(#clippath);
      }

      .st6 {
        fill: url(#_무제_그라디언트_52);
      }
    </style>
    <clipPath id="clippath">
      <path class="st4" d="M261.55,75.5c.66-4.07,3.6-6.32,7.01-7.38,2.78-.62,6.39-.69,9.52-1.04,25.93-1.86,37.5,24,17.2,40.91-4.7,3.7-11.69,5.54-17.72,5.7.19,6.54.12,13.4.13,19.94-.37,11.28-14.49,11.69-15.74.65.03-19.83-.43-38.99-.4-58.77ZM284.49,83.14c-2.08-1.79-7.2-.26-7.2-.26,0,4.22-.05,8.17.11,12.38,0,0,4.19.48,6.55-1.41,4.83-3.87,2.61-8.93.54-10.71Z"/>
    </clipPath>
    <linearGradient id="_무제_그라디언트_52" data-name="무제 그라디언트 52" x1="247" y1="9.01" x2="472.69" y2="152.28" gradientUnits="userSpaceOnUse">
      <stop offset="0" stop-color="#fff"/>
      <stop offset=".51" stop-color="#63c6f2"/>
      <stop offset="1" stop-color="#00a0e9"/>
    </linearGradient>
    <clipPath id="clippath-1">
      <path class="st4" d="M322.92,69.78c6.65,0,8.93,4.2,8.78,14.37s-.29,17.02,0,24.54,0,14.81,0,14.81c0,0,5.58-.44,13.1-1.11s12.6-.22,13.27,7.3-12.16,9.06-19.24,9.29c-7.08.22-21.67,2.87-22.99-4.86s-1.99-19.01-1.55-32.72-2.21-31.62,8.62-31.62Z"/>
    </clipPath>
    <clipPath id="clippath-2">
      <path class="st4" d="M413.67,122.72c-2.21,5.72-7.93,14.08-23.7,14.45-15.46.36-19.91-8.02-22.17-15.78s-3.56-16.19-3.4-24.28.72-18.64,7.56-18.95c5.25-.24,8.13,3.43,8.35,17.01.15,9.37.36,13.48,2.06,19.58,1.5,5.37,6.48,8.88,11.17,7.28,3.15-1.07,6.37-3.53,6.64-11.98.32-10.36-.49-12.95-.65-20.07-.16-7.12-.8-16.47,5.83-17.65,4.74-.84,8.82,2.22,9.84,9.22s.88,10.36,1.17,18.38,1.18,12.74-2.69,22.78Z"/>
    </clipPath>
    <clipPath id="clippath-3">
      <path class="st4" d="M447.63,89.94c-.21-2.99,1.17-4.8,6.61-4.54s11.54-1.94,11.41-8.04-5.58-8.04-13.48-8.17c-7.91-.13-12.45,1.82-18.15,8.04s-5.96,10.11-5.58,15.56,2.98,8.69,6.48,12.45,7.26,4.67,16.08,4.67,11.93,1.82,11.8,5.45c-.13,3.63-7.26,7.39-11.28,7.13s-6.61-4.41-11.02-6.09-9.21-.26-11.15,2.2-3.37,7.65,2.2,13.87,17.63,8.43,23.6,7.52,17.76-3.63,21.26-10.37,4.93-14.26,2.72-20.36-6.22-10.89-11.93-14-19.19.13-19.58-5.32Z"/>
    </clipPath>
    <clipPath id="clippath-4">
      <path class="st4" d="M374.29,46.69c-.98-7.49-4.59-15.4-7.03-15.4h-.01c-2.5.03-5.87,7.72-6.67,15.23l-15.95-.46c0-.12-1.12-14.65-8.27-14.65-.03,0-.06,0-.09,0-3.11.05-5.51,8.8-5.74,14.57l-15.96.46c-.43-4.26-2.59-11.63-5.84-13.85-.48-.33-1.6-1.1-4.38-.33-2.22.61-3.95,7.77-3.81,13.2l-15.99.48c-.08-2.52-.32-24.72,15.55-29.1,8.24-2.27,14.19.15,17.73,2.59,1.43.99,2.71,2.14,3.84,3.39,3.29-4.28,7.93-7.29,14.34-7.4,6.68-.07,12.34,2.49,16.6,7.49,4.96-6.34,10.83-7.57,14.44-7.62,3.61-.05,9.4,1.01,14.49,7.13,3.67-4.26,8.56-6.72,14.4-7.12,5.46-.37,10.42,1.34,14.34,4.95.2.19.4.38.6.58.11-.12.21-.23.32-.34,3.34-3.46,7.65-5.29,12.48-5.29,19.84,0,27.04,18.23,27.04,30.49h-16s-.07-4.39-1.88-8.44c-1.9-4.24-4.64-6.05-9.16-6.05-.5,0-.67.09-.97.4-2.19,2.25-3.21,9.17-3.14,13.51,0,.21,0,.37.01.48l-15.99.37c0-.15-.01-.34-.01-.56-.15-4.13-1.52-10.99-4.15-13.4-.56-.52-1.16-.82-2.38-.73-6.74.46-6.79,14.1-6.79,14.24l-15.94,1.18Z"/>
    </clipPath>
  </defs>
  <g>
    <g>
      <g>
        <path class="st3" d="M59.66,208.31c-4.15-.8-9.24-2.69-13.88-2.07-2.42.32-5.97,3.87-7.42,8.87s-1.94,9.68-3.23,18.55-3.71,20.81-4.84,33.71c-1.13,12.9-1.61,22.26-2.1,32.9-.48,10.65-2.1,17.26,0,21.77s7.51,9.68,15.21,9.68,10.87-2.42,13.83-11.29c1.45-4.35,2.44-6.77,2.43-10.81s1.6-13.39,2.25-23.39,2.26-21.77,2.26-21.77c0,0,7.26,6.77,12.74,15.16,5.48,8.39,15.97,20.16,20.81,28.55,4.84,8.39,20.16,23.39,30.48,22.1,10.32-1.29,15.32-5,19.68-12.26s6.45-11.94,7.9-18.23c1.45-6.29,2.09-15.3,4.52-28.87,1.94-10.81,4.52-21.61,5.81-35.32s1.61-26.61-6.29-31.13-18.87-3.39-21.77,0-8.23,8.23-9.68,20.65-3.06,12.74-3.39,26.77-2.1,19.35-2.1,19.35c0,0-6.61-7.9-13.06-15-6.45-7.1-14.03-15.65-20-23.23-5.97-7.58-12.74-12.26-17.42-16.45s-8.74-7.49-12.73-8.26Z"/>
        <path class="st3" d="M58.66,207.31c-4.15-.8-9.24-2.69-13.88-2.07-2.42.32-5.97,3.87-7.42,8.87s-1.94,9.68-3.23,18.55-3.71,20.81-4.84,33.71c-1.13,12.9-1.61,22.26-2.1,32.9-.48,10.65-2.1,17.26,0,21.77s7.51,9.68,15.21,9.68,10.87-2.42,13.83-11.29c1.45-4.35,2.44-6.77,2.43-10.81s1.6-13.39,2.25-23.39,2.26-21.77,2.26-21.77c0,0,7.26,6.77,12.74,15.16,5.48,8.39,15.97,20.16,20.81,28.55,4.84,8.39,20.16,23.39,30.48,22.1,10.32-1.29,15.32-5,19.68-12.26s6.45-11.94,7.9-18.23c1.45-6.29,2.09-15.3,4.52-28.87,1.94-10.81,4.52-21.61,5.81-35.32s1.61-26.61-6.29-31.13-18.87-3.39-21.77,0-8.23,8.23-9.68,20.65-3.06,12.74-3.39,26.77-2.1,19.35-2.1,19.35c0,0-6.61-7.9-13.06-15-6.45-7.1-14.03-15.65-20-23.23-5.97-7.58-12.74-12.26-17.42-16.45s-8.74-7.49-12.73-8.26Z"/>
        <path class="st3" d="M57.66,206.31c-4.15-.8-9.24-2.69-13.88-2.07-2.42.32-5.97,3.87-7.42,8.87s-1.94,9.68-3.23,18.55-3.71,20.81-4.84,33.71c-1.13,12.9-1.61,22.26-2.1,32.9-.48,10.65-2.1,17.26,0,21.77s7.51,9.68,15.21,9.68,10.87-2.42,13.83-11.29c1.45-4.35,2.44-6.77,2.43-10.81s1.6-13.39,2.25-23.39,2.26-21.77,2.26-21.77c0,0,7.26,6.77,12.74,15.16,5.48,8.39,15.97,20.16,20.81,28.55,4.84,8.39,20.16,23.39,30.48,22.1,10.32-1.29,15.32-5,19.68-12.26s6.45-11.94,7.9-18.23c1.45-6.29,2.09-15.3,4.52-28.87,1.94-10.81,4.52-21.61,5.81-35.32s1.61-26.61-6.29-31.13-18.87-3.39-21.77,0-8.23,8.23-9.68,20.65-3.06,12.74-3.39,26.77-2.1,19.35-2.1,19.35c0,0-6.61-7.9-13.06-15-6.45-7.1-14.03-15.65-20-23.23-5.97-7.58-12.74-12.26-17.42-16.45s-8.74-7.49-12.73-8.26Z"/>
        <path class="st3" d="M56.66,205.31c-4.15-.8-9.24-2.69-13.88-2.07-2.42.32-5.97,3.87-7.42,8.87s-1.94,9.68-3.23,18.55-3.71,20.81-4.84,33.71c-1.13,12.9-1.61,22.26-2.1,32.9-.48,10.65-2.1,17.26,0,21.77s7.51,9.68,15.21,9.68,10.87-2.42,13.83-11.29c1.45-4.35,2.44-6.77,2.43-10.81s1.6-13.39,2.25-23.39,2.26-21.77,2.26-21.77c0,0,7.26,6.77,12.74,15.16,5.48,8.39,15.97,20.16,20.81,28.55,4.84,8.39,20.16,23.39,30.48,22.1,10.32-1.29,15.32-5,19.68-12.26s6.45-11.94,7.9-18.23c1.45-6.29,2.09-15.3,4.52-28.87,1.94-10.81,4.52-21.61,5.81-35.32s1.61-26.61-6.29-31.13-18.87-3.39-21.77,0-8.23,8.23-9.68,20.65-3.06,12.74-3.39,26.77-2.1,19.35-2.1,19.35c0,0-6.61-7.9-13.06-15-6.45-7.1-14.03-15.65-20-23.23-5.97-7.58-12.74-12.26-17.42-16.45s-8.74-7.49-12.73-8.26Z"/>
        <path class="st3" d="M55.66,204.31c-4.15-.8-9.24-2.69-13.88-2.07-2.42.32-5.97,3.87-7.42,8.87s-1.94,9.68-3.23,18.55-3.71,20.81-4.84,33.71c-1.13,12.9-1.61,22.26-2.1,32.9-.48,10.65-2.1,17.26,0,21.77s7.51,9.68,15.21,9.68,10.87-2.42,13.83-11.29c1.45-4.35,2.44-6.77,2.43-10.81s1.6-13.39,2.25-23.39,2.26-21.77,2.26-21.77c0,0,7.26,6.77,12.74,15.16,5.48,8.39,15.97,20.16,20.81,28.55,4.84,8.39,20.16,23.39,30.48,22.1,10.32-1.29,15.32-5,19.68-12.26s6.45-11.94,7.9-18.23c1.45-6.29,2.09-15.3,4.52-28.87,1.94-10.81,4.52-21.61,5.81-35.32s1.61-26.61-6.29-31.13-18.87-3.39-21.77,0-8.23,8.23-9.68,20.65-3.06,12.74-3.39,26.77-2.1,19.35-2.1,19.35c0,0-6.61-7.9-13.06-15-6.45-7.1-14.03-15.65-20-23.23-5.97-7.58-12.74-12.26-17.42-16.45s-8.74-7.49-12.73-8.26Z"/>
        <path class="st3" d="M54.66,203.31c-4.15-.8-9.24-2.69-13.88-2.07-2.42.32-5.97,3.87-7.42,8.87s-1.94,9.68-3.23,18.55-3.71,20.81-4.84,33.71c-1.13,12.9-1.61,22.26-2.1,32.9-.48,10.65-2.1,17.26,0,21.77s7.51,9.68,15.21,9.68,10.87-2.42,13.83-11.29c1.45-4.35,2.44-6.77,2.43-10.81s1.6-13.39,2.25-23.39,2.26-21.77,2.26-21.77c0,0,7.26,6.77,12.74,15.16,5.48,8.39,15.97,20.16,20.81,28.55,4.84,8.39,20.16,23.39,30.48,22.1,10.32-1.29,15.32-5,19.68-12.26s6.45-11.94,7.9-18.23c1.45-6.29,2.09-15.3,4.52-28.87,1.94-10.81,4.52-21.61,5.81-35.32s1.61-26.61-6.29-31.13-18.87-3.39-21.77,0-8.23,8.23-9.68,20.65-3.06,12.74-3.39,26.77-2.1,19.35-2.1,19.35c0,0-6.61-7.9-13.06-15-6.45-7.1-14.03-15.65-20-23.23-5.97-7.58-12.74-12.26-17.42-16.45s-8.74-7.49-12.73-8.26Z"/>
        <path class="st3" d="M53.66,202.31c-4.15-.8-9.24-2.69-13.88-2.07-2.42.32-5.97,3.87-7.42,8.87s-1.94,9.68-3.23,18.55-3.71,20.81-4.84,33.71c-1.13,12.9-1.61,22.26-2.1,32.9-.48,10.65-2.1,17.26,0,21.77s7.51,9.68,15.21,9.68,10.87-2.42,13.83-11.29c1.45-4.35,2.44-6.77,2.43-10.81s1.6-13.39,2.25-23.39,2.26-21.77,2.26-21.77c0,0,7.26,6.77,12.74,15.16,5.48,8.39,15.97,20.16,20.81,28.55,4.84,8.39,20.16,23.39,30.48,22.1,10.32-1.29,15.32-5,19.68-12.26s6.45-11.94,7.9-18.23c1.45-6.29,2.09-15.3,4.52-28.87,1.94-10.81,4.52-21.61,5.81-35.32s1.61-26.61-6.29-31.13-18.87-3.39-21.77,0-8.23,8.23-9.68,20.65-3.06,12.74-3.39,26.77-2.1,19.35-2.1,19.35c0,0-6.61-7.9-13.06-15-6.45-7.1-14.03-15.65-20-23.23-5.97-7.58-12.74-12.26-17.42-16.45s-8.74-7.49-12.73-8.26Z"/>
        <path class="st3" d="M52.66,201.31c-4.15-.8-9.24-2.69-13.88-2.07-2.42.32-5.97,3.87-7.42,8.87s-1.94,9.68-3.23,18.55-3.71,20.81-4.84,33.71c-1.13,12.9-1.61,22.26-2.1,32.9-.48,10.65-2.1,17.26,0,21.77s7.51,9.68,15.21,9.68,10.87-2.42,13.83-11.29c1.45-4.35,2.44-6.77,2.43-10.81s1.6-13.39,2.25-23.39,2.26-21.77,2.26-21.77c0,0,7.26,6.77,12.74,15.16,5.48,8.39,15.97,20.16,20.81,28.55,4.84,8.39,20.16,23.39,30.48,22.1,10.32-1.29,15.32-5,19.68-12.26s6.45-11.94,7.9-18.23c1.45-6.29,2.09-15.3,4.52-28.87,1.94-10.81,4.52-21.61,5.81-35.32s1.61-26.61-6.29-31.13-18.87-3.39-21.77,0-8.23,8.23-9.68,20.65-3.06,12.74-3.39,26.77-2.1,19.35-2.1,19.35c0,0-6.61-7.9-13.06-15-6.45-7.1-14.03-15.65-20-23.23-5.97-7.58-12.74-12.26-17.42-16.45s-8.74-7.49-12.73-8.26Z"/>
        <path class="st3" d="M51.66,200.31c-4.15-.8-9.24-2.69-13.88-2.07-2.42.32-5.97,3.87-7.42,8.87s-1.94,9.68-3.23,18.55-3.71,20.81-4.84,33.71c-1.13,12.9-1.61,22.26-2.1,32.9-.48,10.65-2.1,17.26,0,21.77s7.51,9.68,15.21,9.68,10.87-2.42,13.83-11.29c1.45-4.35,2.44-6.77,2.43-10.81s1.6-13.39,2.25-23.39,2.26-21.77,2.26-21.77c0,0,7.26,6.77,12.74,15.16,5.48,8.39,15.97,20.16,20.81,28.55,4.84,8.39,20.16,23.39,30.48,22.1,10.32-1.29,15.32-5,19.68-12.26s6.45-11.94,7.9-18.23c1.45-6.29,2.09-15.3,4.52-28.87,1.94-10.81,4.52-21.61,5.81-35.32s1.61-26.61-6.29-31.13-18.87-3.39-21.77,0-8.23,8.23-9.68,20.65-3.06,12.74-3.39,26.77-2.1,19.35-2.1,19.35c0,0-6.61-7.9-13.06-15-6.45-7.1-14.03-15.65-20-23.23-5.97-7.58-12.74-12.26-17.42-16.45s-8.74-7.49-12.73-8.26Z"/>
        <path class="st3" d="M50.66,199.31c-4.15-.8-9.24-2.69-13.88-2.07-2.42.32-5.97,3.87-7.42,8.87s-1.94,9.68-3.23,18.55-3.71,20.81-4.84,33.71c-1.13,12.9-1.61,22.26-2.1,32.9-.48,10.65-2.1,17.26,0,21.77s7.51,9.68,15.21,9.68,10.87-2.42,13.83-11.29c1.45-4.35,2.44-6.77,2.43-10.81s1.6-13.39,2.25-23.39,2.26-21.77,2.26-21.77c0,0,7.26,6.77,12.74,15.16,5.48,8.39,15.97,20.16,20.81,28.55,4.84,8.39,20.16,23.39,30.48,22.1,10.32-1.29,15.32-5,19.68-12.26s6.45-11.94,7.9-18.23c1.45-6.29,2.09-15.3,4.52-28.87,1.94-10.81,4.52-21.61,5.81-35.32s1.61-26.61-6.29-31.13-18.87-3.39-21.77,0-8.23,8.23-9.68,20.65-3.06,12.74-3.39,26.77-2.1,19.35-2.1,19.35c0,0-6.61-7.9-13.06-15-6.45-7.1-14.03-15.65-20-23.23-5.97-7.58-12.74-12.26-17.42-16.45s-8.74-7.49-12.73-8.26Z"/>
        <path class="st3" d="M49.66,198.31c-4.15-.8-9.24-2.69-13.88-2.07-2.42.32-5.97,3.87-7.42,8.87s-1.94,9.68-3.23,18.55-3.71,20.81-4.84,33.71c-1.13,12.9-1.61,22.26-2.1,32.9-.48,10.65-2.1,17.26,0,21.77s7.51,9.68,15.21,9.68,10.87-2.42,13.83-11.29c1.45-4.35,2.44-6.77,2.43-10.81s1.6-13.39,2.25-23.39,2.26-21.77,2.26-21.77c0,0,7.26,6.77,12.74,15.16,5.48,8.39,15.97,20.16,20.81,28.55,4.84,8.39,20.16,23.39,30.48,22.1,10.32-1.29,15.32-5,19.68-12.26s6.45-11.94,7.9-18.23c1.45-6.29,2.09-15.3,4.52-28.87,1.94-10.81,4.52-21.61,5.81-35.32s1.61-26.61-6.29-31.13-18.87-3.39-21.77,0-8.23,8.23-9.68,20.65-3.06,12.74-3.39,26.77-2.1,19.35-2.1,19.35c0,0-6.61-7.9-13.06-15-6.45-7.1-14.03-15.65-20-23.23-5.97-7.58-12.74-12.26-17.42-16.45s-8.74-7.49-12.73-8.26Z"/>
      </g>
      <path class="st7" d="M49.66,198.31c-4.15-.8-9.24-2.69-13.88-2.07-2.42.32-5.97,3.87-7.42,8.87s-1.94,9.68-3.23,18.55-3.71,20.81-4.84,33.71c-1.13,12.9-1.61,22.26-2.1,32.9-.48,10.65-2.1,17.26,0,21.77s7.51,9.68,15.21,9.68,10.87-2.42,13.83-11.29c1.45-4.35,2.44-6.77,2.43-10.81s1.6-13.39,2.25-23.39,2.26-21.77,2.26-21.77c0,0,7.26,6.77,12.74,15.16,5.48,8.39,15.97,20.16,20.81,28.55,4.84,8.39,20.16,23.39,30.48,22.1,10.32-1.29,15.32-5,19.68-12.26s6.45-11.94,7.9-18.23c1.45-6.29,2.09-15.3,4.52-28.87,1.94-10.81,4.52-21.61,5.81-35.32s1.61-26.61-6.29-31.13-18.87-3.39-21.77,0-8.23,8.23-9.68,20.65-3.06,12.74-3.39,26.77-2.1,19.35-2.1,19.35c0,0-6.61-7.9-13.06-15-6.45-7.1-14.03-15.65-20-23.23-5.97-7.58-12.74-12.26-17.42-16.45s-8.74-7.49-12.73-8.26Z"/>
      <path class="st3" d="M49.66,198.31c-4.15-.8-9.24-2.69-13.88-2.07-2.42.32-5.97,3.87-7.42,8.87s-1.94,9.68-3.23,18.55-3.71,20.81-4.84,33.71c-1.13,12.9-1.61,22.26-2.1,32.9-.48,10.65-2.1,17.26,0,21.77s7.51,9.68,15.21,9.68,10.87-2.42,13.83-11.29c1.45-4.35,2.44-6.77,2.43-10.81s1.6-13.39,2.25-23.39,2.26-21.77,2.26-21.77c0,0,7.26,6.77,12.74,15.16,5.48,8.39,15.97,20.16,20.81,28.55,4.84,8.39,20.16,23.39,30.48,22.1,10.32-1.29,15.32-5,19.68-12.26s6.45-11.94,7.9-18.23c1.45-6.29,2.09-15.3,4.52-28.87,1.94-10.81,4.52-21.61,5.81-35.32s1.61-26.61-6.29-31.13-18.87-3.39-21.77,0-8.23,8.23-9.68,20.65-3.06,12.74-3.39,26.77-2.1,19.35-2.1,19.35c0,0-6.61-7.9-13.06-15-6.45-7.1-14.03-15.65-20-23.23-5.97-7.58-12.74-12.26-17.42-16.45s-8.74-7.49-12.73-8.26Z"/>
    </g>
    <g>
      <g>
        <path class="st3" d="M191.91,329.84c7.41.72,14.45,3.39,15.58,11.74s-1.58,22.12-13.09,23.03c-11.51.9-19.19-1.13-21.67-11.74-2.48-10.61-1.13-14.9,2.03-17.61s12.76-5.85,17.16-5.42Z"/>
        <path class="st3" d="M190.91,328.84c7.41.72,14.45,3.39,15.58,11.74s-1.58,22.12-13.09,23.03c-11.51.9-19.19-1.13-21.67-11.74-2.48-10.61-1.13-14.9,2.03-17.61s12.76-5.85,17.16-5.42Z"/>
        <path class="st3" d="M189.91,327.84c7.41.72,14.45,3.39,15.58,11.74s-1.58,22.12-13.09,23.03c-11.51.9-19.19-1.13-21.67-11.74-2.48-10.61-1.13-14.9,2.03-17.61s12.76-5.85,17.16-5.42Z"/>
        <path class="st3" d="M188.91,326.84c7.41.72,14.45,3.39,15.58,11.74s-1.58,22.12-13.09,23.03c-11.51.9-19.19-1.13-21.67-11.74-2.48-10.61-1.13-14.9,2.03-17.61s12.76-5.85,17.16-5.42Z"/>
        <path class="st3" d="M187.91,325.84c7.41.72,14.45,3.39,15.58,11.74s-1.58,22.12-13.09,23.03c-11.51.9-19.19-1.13-21.67-11.74-2.48-10.61-1.13-14.9,2.03-17.61s12.76-5.85,17.16-5.42Z"/>
        <path class="st3" d="M186.91,324.84c7.41.72,14.45,3.39,15.58,11.74s-1.58,22.12-13.09,23.03c-11.51.9-19.19-1.13-21.67-11.74-2.48-10.61-1.13-14.9,2.03-17.61s12.76-5.85,17.16-5.42Z"/>
        <path class="st3" d="M185.91,323.84c7.41.72,14.45,3.39,15.58,11.74s-1.58,22.12-13.09,23.03c-11.51.9-19.19-1.13-21.67-11.74-2.48-10.61-1.13-14.9,2.03-17.61s12.76-5.85,17.16-5.42Z"/>
        <path class="st3" d="M184.91,322.84c7.41.72,14.45,3.39,15.58,11.74s-1.58,22.12-13.09,23.03c-11.51.9-19.19-1.13-21.67-11.74-2.48-10.61-1.13-14.9,2.03-17.61s12.76-5.85,17.16-5.42Z"/>
        <path class="st3" d="M183.91,321.84c7.41.72,14.45,3.39,15.58,11.74s-1.58,22.12-13.09,23.03c-11.51.9-19.19-1.13-21.67-11.74-2.48-10.61-1.13-14.9,2.03-17.61s12.76-5.85,17.16-5.42Z"/>
        <path class="st3" d="M182.91,320.84c7.41.72,14.45,3.39,15.58,11.74s-1.58,22.12-13.09,23.03c-11.51.9-19.19-1.13-21.67-11.74-2.48-10.61-1.13-14.9,2.03-17.61s12.76-5.85,17.16-5.42Z"/>
        <path class="st3" d="M181.91,319.84c7.41.72,14.45,3.39,15.58,11.74s-1.58,22.12-13.09,23.03c-11.51.9-19.19-1.13-21.67-11.74-2.48-10.61-1.13-14.9,2.03-17.61s12.76-5.85,17.16-5.42Z"/>
      </g>
      <path class="st8" d="M181.91,319.84c7.41.72,14.45,3.39,15.58,11.74s-1.58,22.12-13.09,23.03c-11.51.9-19.19-1.13-21.67-11.74-2.48-10.61-1.13-14.9,2.03-17.61s12.76-5.85,17.16-5.42Z"/>
      <path class="st3" d="M181.91,319.84c7.41.72,14.45,3.39,15.58,11.74s-1.58,22.12-13.09,23.03c-11.51.9-19.19-1.13-21.67-11.74-2.48-10.61-1.13-14.9,2.03-17.61s12.76-5.85,17.16-5.42Z"/>
    </g>
    <g>
      <g>
        <path class="st3" d="M215.65,198.67c-3.09,6.48-4.75,10.98-2.67,25.82,2.08,14.84,2.08,29.39,5.34,43.93s2.37,20.48,4.16,32.36c1.78,11.87.44,33.25,9.42,38.29s16.1,8.01,22.64,1.78c6.53-6.23,7.12-12.17,5.34-29.98-1.78-17.81-3.27-31.46-3.27-31.46,0,0,6.53-.59,19.89-2.97,13.36-2.37,27.31-2.97,28.79-13.36,1.48-10.39-1.61-18.75-13.22-18.41-7.07.21-13.26-.07-24.48,2.09-9.66,1.86-15.36,1.86-15.96,1.32-1.56-1.4-2.74-5.14-3.03-14.34s.6-10.1,6-13.49c3.56-2.23,10.79-1.36,20.42-2.28,5.35-.51,12.17-.89,22.26-3.56s14.54-3.57,16.92-12.91c2.37-9.35-.59-15.28-10.69-16.77s-20.48,1.78-28.79,2.97c-8.31,1.19-22.26,1.78-32.06,2.97s-12.17,1.78-16.33,2.67-8.4.56-10.69,5.34Z"/>
        <path class="st3" d="M214.65,197.67c-3.09,6.48-4.75,10.98-2.67,25.82,2.08,14.84,2.08,29.39,5.34,43.93s2.37,20.48,4.16,32.36c1.78,11.87.44,33.25,9.42,38.29s16.1,8.01,22.64,1.78c6.53-6.23,7.12-12.17,5.34-29.98-1.78-17.81-3.27-31.46-3.27-31.46,0,0,6.53-.59,19.89-2.97,13.36-2.37,27.31-2.97,28.79-13.36,1.48-10.39-1.61-18.75-13.22-18.41-7.07.21-13.26-.07-24.48,2.09-9.66,1.86-15.36,1.86-15.96,1.32-1.56-1.4-2.74-5.14-3.03-14.34s.6-10.1,6-13.49c3.56-2.23,10.79-1.36,20.42-2.28,5.35-.51,12.17-.89,22.26-3.56s14.54-3.57,16.92-12.91c2.37-9.35-.59-15.28-10.69-16.77s-20.48,1.78-28.79,2.97-22.26,1.78-32.06,2.97-12.17,1.78-16.33,2.67-8.4.56-10.69,5.34Z"/>
        <path class="st3" d="M213.65,196.67c-3.09,6.48-4.75,10.98-2.67,25.82,2.08,14.84,2.08,29.39,5.34,43.93s2.37,20.48,4.16,32.36c1.78,11.87.44,33.25,9.42,38.29s16.1,8.01,22.64,1.78c6.53-6.23,7.12-12.17,5.34-29.98-1.78-17.81-3.27-31.46-3.27-31.46,0,0,6.53-.59,19.89-2.97,13.36-2.37,27.31-2.97,28.79-13.36,1.48-10.39-1.61-18.75-13.22-18.41-7.07.21-13.26-.07-24.48,2.09-9.66,1.86-15.36,1.86-15.96,1.32-1.56-1.4-2.74-5.14-3.03-14.34s.6-10.1,6-13.49c3.56-2.23,10.79-1.36,20.42-2.28,5.35-.51,12.17-.89,22.26-3.56s14.54-3.57,16.92-12.91c2.37-9.35-.59-15.28-10.69-16.77s-20.48,1.78-28.79,2.97-22.26,1.78-32.06,2.97-12.17,1.78-16.33,2.67-8.4.56-10.69,5.34Z"/>
        <path class="st3" d="M212.65,195.67c-3.09,6.48-4.75,10.98-2.67,25.82,2.08,14.84,2.08,29.39,5.34,43.93s2.37,20.48,4.16,32.36c1.78,11.87.44,33.25,9.42,38.29s16.1,8.01,22.64,1.78c6.53-6.23,7.12-12.17,5.34-29.98-1.78-17.81-3.27-31.46-3.27-31.46,0,0,6.53-.59,19.89-2.97,13.36-2.37,27.31-2.97,28.79-13.36,1.48-10.39-1.61-18.75-13.22-18.41-7.07.21-13.26-.07-24.48,2.09-9.66,1.86-15.36,1.86-15.96,1.32-1.56-1.4-2.74-5.14-3.03-14.34s.6-10.1,6-13.49c3.56-2.23,10.79-1.36,20.42-2.28,5.35-.51,12.17-.89,22.26-3.56s14.54-3.57,16.92-12.91c2.37-9.35-.59-15.28-10.69-16.77s-20.48,1.78-28.79,2.97-22.26,1.78-32.06,2.97-12.17,1.78-16.33,2.67-8.4.56-10.69,5.34Z"/>
        <path class="st3" d="M211.65,194.67c-3.09,6.48-4.75,10.98-2.67,25.82,2.08,14.84,2.08,29.39,5.34,43.93s2.37,20.48,4.16,32.36c1.78,11.87.44,33.25,9.42,38.29s16.1,8.01,22.64,1.78c6.53-6.23,7.12-12.17,5.34-29.98-1.78-17.81-3.27-31.46-3.27-31.46,0,0,6.53-.59,19.89-2.97,13.36-2.37,27.31-2.97,28.79-13.36,1.48-10.39-1.61-18.75-13.22-18.41-7.07.21-13.26-.07-24.48,2.09-9.66,1.86-15.36,1.86-15.96,1.32-1.56-1.4-2.74-5.14-3.03-14.34s.6-10.1,6-13.49c3.56-2.23,10.79-1.36,20.42-2.28,5.35-.51,12.17-.89,22.26-3.56s14.54-3.57,16.92-12.91c2.37-9.35-.59-15.28-10.69-16.77s-20.48,1.78-28.79,2.97-22.26,1.78-32.06,2.97-12.17,1.78-16.33,2.67-8.4.56-10.69,5.34Z"/>
        <path class="st3" d="M210.65,193.67c-3.09,6.48-4.75,10.98-2.67,25.82,2.08,14.84,2.08,29.39,5.34,43.93s2.37,20.48,4.16,32.36c1.78,11.87.44,33.25,9.42,38.29s16.1,8.01,22.64,1.78c6.53-6.23,7.12-12.17,5.34-29.98-1.78-17.81-3.27-31.46-3.27-31.46,0,0,6.53-.59,19.89-2.97,13.36-2.37,27.31-2.97,28.79-13.36,1.48-10.39-1.61-18.75-13.22-18.41-7.07.21-13.26-.07-24.48,2.09-9.66,1.86-15.36,1.86-15.96,1.32-1.56-1.4-2.74-5.14-3.03-14.34s.6-10.1,6-13.49c3.56-2.23,10.79-1.36,20.42-2.28,5.35-.51,12.17-.89,22.26-3.56s14.54-3.57,16.92-12.91c2.37-9.35-.59-15.28-10.69-16.77s-20.48,1.78-28.79,2.97-22.26,1.78-32.06,2.97c-9.8,1.19-12.17,1.78-16.33,2.67s-8.4.56-10.69,5.34Z"/>
        <path class="st3" d="M209.65,192.67c-3.09,6.48-4.75,10.98-2.67,25.82,2.08,14.84,2.08,29.39,5.34,43.93s2.37,20.48,4.16,32.36c1.78,11.87.44,33.25,9.42,38.29s16.1,8.01,22.64,1.78c6.53-6.23,7.12-12.17,5.34-29.98-1.78-17.81-3.27-31.46-3.27-31.46,0,0,6.53-.59,19.89-2.97,13.36-2.37,27.31-2.97,28.79-13.36,1.48-10.39-1.61-18.75-13.22-18.41-7.07.21-13.26-.07-24.48,2.09-9.66,1.86-15.36,1.86-15.96,1.32-1.56-1.4-2.74-5.14-3.03-14.34s.6-10.1,6-13.49c3.56-2.23,10.79-1.36,20.42-2.28,5.35-.51,12.17-.89,22.26-3.56s14.54-3.57,16.92-12.91c2.37-9.35-.59-15.28-10.69-16.77s-20.48,1.78-28.79,2.97-22.26,1.78-32.06,2.97c-9.8,1.19-12.17,1.78-16.33,2.67s-8.4.56-10.69,5.34Z"/>
        <path class="st3" d="M208.65,191.67c-3.09,6.48-4.75,10.98-2.67,25.82,2.08,14.84,2.08,29.39,5.34,43.93s2.37,20.48,4.16,32.36c1.78,11.87.44,33.25,9.42,38.29s16.1,8.01,22.64,1.78c6.53-6.23,7.12-12.17,5.34-29.98-1.78-17.81-3.27-31.46-3.27-31.46,0,0,6.53-.59,19.89-2.97,13.36-2.37,27.31-2.97,28.79-13.36,1.48-10.39-1.61-18.75-13.22-18.41-7.07.21-13.26-.07-24.48,2.09-9.66,1.86-15.36,1.86-15.96,1.32-1.56-1.4-2.74-5.14-3.03-14.34s.6-10.1,6-13.49c3.56-2.23,10.79-1.36,20.42-2.28,5.35-.51,12.17-.89,22.26-3.56s14.54-3.57,16.92-12.91c2.37-9.35-.59-15.28-10.69-16.77s-20.48,1.78-28.79,2.97-22.26,1.78-32.06,2.97c-9.8,1.19-12.17,1.78-16.33,2.67s-8.4.56-10.69,5.34Z"/>
        <path class="st3" d="M207.65,190.67c-3.09,6.48-4.75,10.98-2.67,25.82,2.08,14.84,2.08,29.39,5.34,43.93s2.37,20.48,4.16,32.36c1.78,11.87.44,33.25,9.42,38.29s16.1,8.01,22.64,1.78c6.53-6.23,7.12-12.17,5.34-29.98-1.78-17.81-3.27-31.46-3.27-31.46,0,0,6.53-.59,19.89-2.97,13.36-2.37,27.31-2.97,28.79-13.36,1.48-10.39-1.61-18.75-13.22-18.41-7.07.21-13.26-.07-24.48,2.09-9.66,1.86-15.36,1.86-15.96,1.32-1.56-1.4-2.74-5.14-3.03-14.34s.6-10.1,6-13.49c3.56-2.23,10.79-1.36,20.42-2.28,5.35-.51,12.17-.89,22.26-3.56s14.54-3.57,16.92-12.91c2.37-9.35-.59-15.28-10.69-16.77s-20.48,1.78-28.79,2.97-22.26,1.78-32.06,2.97c-9.8,1.19-12.17,1.78-16.33,2.67s-8.4.56-10.69,5.34Z"/>
        <path class="st3" d="M206.65,189.67c-3.09,6.48-4.75,10.98-2.67,25.82,2.08,14.84,2.08,29.39,5.34,43.93s2.37,20.48,4.16,32.36c1.78,11.87.44,33.25,9.42,38.29s16.1,8.01,22.64,1.78c6.53-6.23,7.12-12.17,5.34-29.98-1.78-17.81-3.27-31.46-3.27-31.46,0,0,6.53-.59,19.89-2.97,13.36-2.37,27.31-2.97,28.79-13.36,1.48-10.39-1.61-18.75-13.22-18.41-7.07.21-13.26-.07-24.48,2.09-9.66,1.86-15.36,1.86-15.96,1.32-1.56-1.4-2.74-5.14-3.03-14.34s.6-10.1,6-13.49c3.56-2.23,10.79-1.36,20.42-2.28,5.35-.51,12.17-.89,22.26-3.56s14.54-3.57,16.92-12.91c2.37-9.35-.59-15.28-10.69-16.77s-20.48,1.78-28.79,2.97-22.26,1.78-32.06,2.97c-9.8,1.19-12.17,1.78-16.33,2.67s-8.4.56-10.69,5.34Z"/>
        <path class="st3" d="M205.65,188.67c-3.09,6.48-4.75,10.98-2.67,25.82,2.08,14.84,2.08,29.39,5.34,43.93s2.37,20.48,4.16,32.36c1.78,11.87.44,33.25,9.42,38.29s16.1,8.01,22.64,1.78c6.53-6.23,7.12-12.17,5.34-29.98-1.78-17.81-3.27-31.46-3.27-31.46,0,0,6.53-.59,19.89-2.97,13.36-2.37,27.31-2.97,28.79-13.36,1.48-10.39-1.61-18.75-13.22-18.41-7.07.21-13.26-.07-24.48,2.09-9.66,1.86-15.36,1.86-15.96,1.32-1.56-1.4-2.74-5.14-3.03-14.34s.6-10.1,6-13.49c3.56-2.23,10.79-1.36,20.42-2.28,5.35-.51,12.17-.89,22.26-3.56s14.54-3.57,16.92-12.91c2.37-9.35-.59-15.28-10.69-16.77s-20.48,1.78-28.79,2.97-22.26,1.78-32.06,2.97c-9.8,1.19-12.17,1.78-16.33,2.67s-8.4.56-10.69,5.34Z"/>
      </g>
      <path class="st16" d="M205.65,188.67c-3.09,6.48-4.75,10.98-2.67,25.82,2.08,14.84,2.08,29.39,5.34,43.93s2.37,20.48,4.16,32.36c1.78,11.87.44,33.25,9.42,38.29s16.1,8.01,22.64,1.78c6.53-6.23,7.12-12.17,5.34-29.98-1.78-17.81-3.27-31.46-3.27-31.46,0,0,6.53-.59,19.89-2.97,13.36-2.37,27.31-2.97,28.79-13.36,1.48-10.39-1.61-18.75-13.22-18.41-7.07.21-13.26-.07-24.48,2.09-9.66,1.86-15.36,1.86-15.96,1.32-1.56-1.4-2.74-5.14-3.03-14.34s.6-10.1,6-13.49c3.56-2.23,10.79-1.36,20.42-2.28,5.35-.51,12.17-.89,22.26-3.56s14.54-3.57,16.92-12.91c2.37-9.35-.59-15.28-10.69-16.77s-20.48,1.78-28.79,2.97-22.26,1.78-32.06,2.97c-9.8,1.19-12.17,1.78-16.33,2.67s-8.4.56-10.69,5.34Z"/>
      <path class="st3" d="M205.65,188.67c-3.09,6.48-4.75,10.98-2.67,25.82,2.08,14.84,2.08,29.39,5.34,43.93s2.37,20.48,4.16,32.36c1.78,11.87.44,33.25,9.42,38.29s16.1,8.01,22.64,1.78c6.53-6.23,7.12-12.17,5.34-29.98-1.78-17.81-3.27-31.46-3.27-31.46,0,0,6.53-.59,19.89-2.97,13.36-2.37,27.31-2.97,28.79-13.36,1.48-10.39-1.61-18.75-13.22-18.41-7.07.21-13.26-.07-24.48,2.09-9.66,1.86-15.36,1.86-15.96,1.32-1.56-1.4-2.74-5.14-3.03-14.34s.6-10.1,6-13.49c3.56-2.23,10.79-1.36,20.42-2.28,5.35-.51,12.17-.89,22.26-3.56s14.54-3.57,16.92-12.91c2.37-9.35-.59-15.28-10.69-16.77s-20.48,1.78-28.79,2.97-22.26,1.78-32.06,2.97c-9.8,1.19-12.17,1.78-16.33,2.67s-8.4.56-10.69,5.34Z"/>
    </g>
    <g>
      <g>
        <path class="st3" d="M342.36,267.47c5.03-1.68,13.83-4.85,17.6,6.29s5.21,21.19,6.47,29.27,2.69,14.91,2.51,22.99-1.8,15.98-9.16,16.16c-7.36.18-13.29-1.62-17.42-17.78s-5.93-23.71-5.93-34.84.03-20.11,5.93-22.09Z"/>
        <path class="st3" d="M341.36,266.47c5.03-1.68,13.83-4.85,17.6,6.29s5.21,21.19,6.47,29.27,2.69,14.91,2.51,22.99-1.8,15.98-9.16,16.16c-7.36.18-13.29-1.62-17.42-17.78s-5.93-23.71-5.93-34.84.03-20.11,5.93-22.09Z"/>
        <path class="st3" d="M340.36,265.47c5.03-1.68,13.83-4.85,17.6,6.29s5.21,21.19,6.47,29.27,2.69,14.91,2.51,22.99-1.8,15.98-9.16,16.16c-7.36.18-13.29-1.62-17.42-17.78s-5.93-23.71-5.93-34.84.03-20.11,5.93-22.09Z"/>
        <path class="st3" d="M339.36,264.47c5.03-1.68,13.83-4.85,17.6,6.29s5.21,21.19,6.47,29.27,2.69,14.91,2.51,22.99-1.8,15.98-9.16,16.16c-7.36.18-13.29-1.62-17.42-17.78s-5.93-23.71-5.93-34.84.03-20.11,5.93-22.09Z"/>
        <path class="st3" d="M338.36,263.47c5.03-1.68,13.83-4.85,17.6,6.29s5.21,21.19,6.47,29.27,2.69,14.91,2.51,22.99-1.8,15.98-9.16,16.16c-7.36.18-13.29-1.62-17.42-17.78s-5.93-23.71-5.93-34.84.03-20.11,5.93-22.09Z"/>
        <path class="st3" d="M337.36,262.47c5.03-1.68,13.83-4.85,17.6,6.29s5.21,21.19,6.47,29.27,2.69,14.91,2.51,22.99-1.8,15.98-9.16,16.16c-7.36.18-13.29-1.62-17.42-17.78s-5.93-23.71-5.93-34.84.03-20.11,5.93-22.09Z"/>
        <path class="st3" d="M336.36,261.47c5.03-1.68,13.83-4.85,17.6,6.29s5.21,21.19,6.47,29.27,2.69,14.91,2.51,22.99-1.8,15.98-9.16,16.16c-7.36.18-13.29-1.62-17.42-17.78s-5.93-23.71-5.93-34.84.03-20.11,5.93-22.09Z"/>
        <path class="st3" d="M335.36,260.47c5.03-1.68,13.83-4.85,17.6,6.29s5.21,21.19,6.47,29.27,2.69,14.91,2.51,22.99-1.8,15.98-9.16,16.16c-7.36.18-13.29-1.62-17.42-17.78s-5.93-23.71-5.93-34.84.03-20.11,5.93-22.09Z"/>
        <path class="st3" d="M334.36,259.47c5.03-1.68,13.83-4.85,17.6,6.29s5.21,21.19,6.47,29.27,2.69,14.91,2.51,22.99-1.8,15.98-9.16,16.16c-7.36.18-13.29-1.62-17.42-17.78s-5.93-23.71-5.93-34.84.03-20.11,5.93-22.09Z"/>
        <path class="st3" d="M333.36,258.47c5.03-1.68,13.83-4.85,17.6,6.29s5.21,21.19,6.47,29.27,2.69,14.91,2.51,22.99-1.8,15.98-9.16,16.16c-7.36.18-13.29-1.62-17.42-17.78s-5.93-23.71-5.93-34.84.03-20.11,5.93-22.09Z"/>
        <path class="st3" d="M332.36,257.47c5.03-1.68,13.83-4.85,17.6,6.29s5.21,21.19,6.47,29.27,2.69,14.91,2.51,22.99-1.8,15.98-9.16,16.16c-7.36.18-13.29-1.62-17.42-17.78s-5.93-23.71-5.93-34.84.03-20.11,5.93-22.09Z"/>
      </g>
      <path class="st9" d="M332.36,257.47c5.03-1.68,13.83-4.85,17.6,6.29s5.21,21.19,6.47,29.27,2.69,14.91,2.51,22.99-1.8,15.98-9.16,16.16c-7.36.18-13.29-1.62-17.42-17.78s-5.93-23.71-5.93-34.84.03-20.11,5.93-22.09Z"/>
      <path class="st3" d="M332.36,257.47c5.03-1.68,13.83-4.85,17.6,6.29s5.21,21.19,6.47,29.27,2.69,14.91,2.51,22.99-1.8,15.98-9.16,16.16c-7.36.18-13.29-1.62-17.42-17.78s-5.93-23.71-5.93-34.84.03-20.11,5.93-22.09Z"/>
    </g>
    <g>
      <g>
        <path class="st3" d="M336.43,244.85c3.81,2.54,12.93,5.03,17.78,0s6.11-10.42,5.39-15.09c-.72-4.67-5.93-8.8-13.29-8.08s-11.85,2.69-12.39,10.42.56,11.45,2.51,12.75Z"/>
        <path class="st3" d="M335.43,243.85c3.81,2.54,12.93,5.03,17.78,0s6.11-10.42,5.39-15.09c-.72-4.67-5.93-8.8-13.29-8.08s-11.85,2.69-12.39,10.42.56,11.45,2.51,12.75Z"/>
        <path class="st3" d="M334.43,242.85c3.81,2.54,12.93,5.03,17.78,0s6.11-10.42,5.39-15.09c-.72-4.67-5.93-8.8-13.29-8.08s-11.85,2.69-12.39,10.42.56,11.45,2.51,12.75Z"/>
        <path class="st3" d="M333.43,241.85c3.81,2.54,12.93,5.03,17.78,0s6.11-10.42,5.39-15.09c-.72-4.67-5.93-8.8-13.29-8.08s-11.85,2.69-12.39,10.42.56,11.45,2.51,12.75Z"/>
        <path class="st3" d="M332.43,240.85c3.81,2.54,12.93,5.03,17.78,0s6.11-10.42,5.39-15.09c-.72-4.67-5.93-8.8-13.29-8.08s-11.85,2.69-12.39,10.42.56,11.45,2.51,12.75Z"/>
        <path class="st3" d="M331.43,239.85c3.81,2.54,12.93,5.03,17.78,0s6.11-10.42,5.39-15.09c-.72-4.67-5.93-8.8-13.29-8.08s-11.85,2.69-12.39,10.42.56,11.45,2.51,12.75Z"/>
        <path class="st3" d="M330.43,238.85c3.81,2.54,12.93,5.03,17.78,0s6.11-10.42,5.39-15.09c-.72-4.67-5.93-8.8-13.29-8.08s-11.85,2.69-12.39,10.42.56,11.45,2.51,12.75Z"/>
        <path class="st3" d="M329.43,237.85c3.81,2.54,12.93,5.03,17.78,0s6.11-10.42,5.39-15.09c-.72-4.67-5.93-8.8-13.29-8.08s-11.85,2.69-12.39,10.42.56,11.45,2.51,12.75Z"/>
        <path class="st3" d="M328.43,236.85c3.81,2.54,12.93,5.03,17.78,0s6.11-10.42,5.39-15.09c-.72-4.67-5.93-8.8-13.29-8.08s-11.85,2.69-12.39,10.42.56,11.45,2.51,12.75Z"/>
        <path class="st3" d="M327.43,235.85c3.81,2.54,12.93,5.03,17.78,0s6.11-10.42,5.39-15.09c-.72-4.67-5.93-8.8-13.29-8.08s-11.85,2.69-12.39,10.42.56,11.45,2.51,12.75Z"/>
        <path class="st3" d="M326.43,234.85c3.81,2.54,12.93,5.03,17.78,0s6.11-10.42,5.39-15.09c-.72-4.67-5.93-8.8-13.29-8.08s-11.85,2.69-12.39,10.42.56,11.45,2.51,12.75Z"/>
      </g>
      <path class="st9" d="M326.43,234.85c3.81,2.54,12.93,5.03,17.78,0s6.11-10.42,5.39-15.09c-.72-4.67-5.93-8.8-13.29-8.08s-11.85,2.69-12.39,10.42.56,11.45,2.51,12.75Z"/>
      <path class="st3" d="M326.43,234.85c3.81,2.54,12.93,5.03,17.78,0s6.11-10.42,5.39-15.09c-.72-4.67-5.93-8.8-13.29-8.08s-11.85,2.69-12.39,10.42.56,11.45,2.51,12.75Z"/>
    </g>
    <g>
      <g>
        <path class="st3" d="M411.68,264.96c.54-.36,4.67-8.8,14.19-10.06,9.52-1.26,15.44.36,20.47,5.03s8.62,6.29,9.7,5.03,4.13-9.26,19.93-10.47c15.8-1.21,22.27,8.49,28.55,17.29,6.29,8.8,8.26,20.11,10.24,26.58,1.98,6.47,1.44,16.52-6.29,20.83-7.72,4.31-17.06,1.62-19.4-5.75s-3.59-16.34-5.93-21.55c-2.33-5.21-7.54-7.9-12.21-6.64s-6.29,4.67-5.39,12.93,1.62,10.95,1.62,14.73-3.59,10.06-9.52,10.95c-5.93.9-14.91-2.87-18.5-13.47-3.59-10.6-3.95-16.7-5.93-19.57-1.98-2.87-5.03-4.31-7.36-2.51s-4.67,5.75-3.41,13.29,2.51,13.65,2.51,19.75-4.13,10.78-11.31,10.6c-7.18-.18-17.6-6.29-20.11-18.68-2.51-12.39-4.86-23.05-3.41-32.68.54-3.59.36-6.64,2.33-10.78,1.98-4.13,4.01-5.9,7.72-6.64,7.18-1.44,11.49,1.8,11.49,1.8Z"/>
        <path class="st3" d="M410.68,263.96c.54-.36,4.67-8.8,14.19-10.06,9.52-1.26,15.44.36,20.47,5.03s8.62,6.29,9.7,5.03,4.13-9.26,19.93-10.47c15.8-1.21,22.27,8.49,28.55,17.29,6.29,8.8,8.26,20.11,10.24,26.58,1.98,6.47,1.44,16.52-6.29,20.83-7.72,4.31-17.06,1.62-19.4-5.75s-3.59-16.34-5.93-21.55c-2.33-5.21-7.54-7.9-12.21-6.64s-6.29,4.67-5.39,12.93,1.62,10.95,1.62,14.73-3.59,10.06-9.52,10.95c-5.93.9-14.91-2.87-18.5-13.47-3.59-10.6-3.95-16.7-5.93-19.57-1.98-2.87-5.03-4.31-7.36-2.51s-4.67,5.75-3.41,13.29,2.51,13.65,2.51,19.75-4.13,10.78-11.31,10.6c-7.18-.18-17.6-6.29-20.11-18.68-2.51-12.39-4.86-23.05-3.41-32.68.54-3.59.36-6.64,2.33-10.78,1.98-4.13,4.01-5.9,7.72-6.64,7.18-1.44,11.49,1.8,11.49,1.8Z"/>
        <path class="st3" d="M409.68,262.96c.54-.36,4.67-8.8,14.19-10.06,9.52-1.26,15.44.36,20.47,5.03s8.62,6.29,9.7,5.03,4.13-9.26,19.93-10.47c15.8-1.21,22.27,8.49,28.55,17.29,6.29,8.8,8.26,20.11,10.24,26.58,1.98,6.47,1.44,16.52-6.29,20.83-7.72,4.31-17.06,1.62-19.4-5.75s-3.59-16.34-5.93-21.55c-2.33-5.21-7.54-7.9-12.21-6.64s-6.29,4.67-5.39,12.93,1.62,10.95,1.62,14.73-3.59,10.06-9.52,10.95c-5.93.9-14.91-2.87-18.5-13.47-3.59-10.6-3.95-16.7-5.93-19.57-1.98-2.87-5.03-4.31-7.36-2.51s-4.67,5.75-3.41,13.29,2.51,13.65,2.51,19.75-4.13,10.78-11.31,10.6c-7.18-.18-17.6-6.29-20.11-18.68-2.51-12.39-4.86-23.05-3.41-32.68.54-3.59.36-6.64,2.33-10.78,1.98-4.13,4.01-5.9,7.72-6.64,7.18-1.44,11.49,1.8,11.49,1.8Z"/>
        <path class="st3" d="M408.68,261.96c.54-.36,4.67-8.8,14.19-10.06,9.52-1.26,15.44.36,20.47,5.03s8.62,6.29,9.7,5.03,4.13-9.26,19.93-10.47c15.8-1.21,22.27,8.49,28.55,17.29,6.29,8.8,8.26,20.11,10.24,26.58,1.98,6.47,1.44,16.52-6.29,20.83-7.72,4.31-17.06,1.62-19.4-5.75s-3.59-16.34-5.93-21.55c-2.33-5.21-7.54-7.9-12.21-6.64s-6.29,4.67-5.39,12.93,1.62,10.95,1.62,14.73-3.59,10.06-9.52,10.95c-5.93.9-14.91-2.87-18.5-13.47-3.59-10.6-3.95-16.7-5.93-19.57-1.98-2.87-5.03-4.31-7.36-2.51s-4.67,5.75-3.41,13.29,2.51,13.65,2.51,19.75-4.13,10.78-11.31,10.6c-7.18-.18-17.6-6.29-20.11-18.68-2.51-12.39-4.86-23.05-3.41-32.68.54-3.59.36-6.64,2.33-10.78,1.98-4.13,4.01-5.9,7.72-6.64,7.18-1.44,11.49,1.8,11.49,1.8Z"/>
        <path class="st3" d="M407.68,260.96c.54-.36,4.67-8.8,14.19-10.06,9.52-1.26,15.44.36,20.47,5.03s8.62,6.29,9.7,5.03,4.13-9.26,19.93-10.47c15.8-1.21,22.27,8.49,28.55,17.29,6.29,8.8,8.26,20.11,10.24,26.58,1.98,6.47,1.44,16.52-6.29,20.83-7.72,4.31-17.06,1.62-19.4-5.75s-3.59-16.34-5.93-21.55c-2.33-5.21-7.54-7.9-12.21-6.64s-6.29,4.67-5.39,12.93,1.62,10.95,1.62,14.73-3.59,10.06-9.52,10.95c-5.93.9-14.91-2.87-18.5-13.47-3.59-10.6-3.95-16.7-5.93-19.57-1.98-2.87-5.03-4.31-7.36-2.51s-4.67,5.75-3.41,13.29,2.51,13.65,2.51,19.75-4.13,10.78-11.31,10.6c-7.18-.18-17.6-6.29-20.11-18.68-2.51-12.39-4.86-23.05-3.41-32.68.54-3.59.36-6.64,2.33-10.78,1.98-4.13,4.01-5.9,7.72-6.64,7.18-1.44,11.49,1.8,11.49,1.8Z"/>
        <path class="st3" d="M406.68,259.96c.54-.36,4.67-8.8,14.19-10.06,9.52-1.26,15.44.36,20.47,5.03s8.62,6.29,9.7,5.03,4.13-9.26,19.93-10.47c15.8-1.21,22.27,8.49,28.55,17.29,6.29,8.8,8.26,20.11,10.24,26.58,1.98,6.47,1.44,16.52-6.29,20.83-7.72,4.31-17.06,1.62-19.4-5.75s-3.59-16.34-5.93-21.55c-2.33-5.21-7.54-7.9-12.21-6.64s-6.29,4.67-5.39,12.93,1.62,10.95,1.62,14.73-3.59,10.06-9.52,10.95c-5.93.9-14.91-2.87-18.5-13.47-3.59-10.6-3.95-16.7-5.93-19.57-1.98-2.87-5.03-4.31-7.36-2.51s-4.67,5.75-3.41,13.29,2.51,13.65,2.51,19.75-4.13,10.78-11.31,10.6c-7.18-.18-17.6-6.29-20.11-18.68-2.51-12.39-4.86-23.05-3.41-32.68.54-3.59.36-6.64,2.33-10.78,1.98-4.13,4.01-5.9,7.72-6.64,7.18-1.44,11.49,1.8,11.49,1.8Z"/>
        <path class="st3" d="M405.68,258.96c.54-.36,4.67-8.8,14.19-10.06,9.52-1.26,15.44.36,20.47,5.03s8.62,6.29,9.7,5.03,4.13-9.26,19.93-10.47c15.8-1.21,22.27,8.49,28.55,17.29,6.29,8.8,8.26,20.11,10.24,26.58,1.98,6.47,1.44,16.52-6.29,20.83-7.72,4.31-17.06,1.62-19.4-5.75s-3.59-16.34-5.93-21.55c-2.33-5.21-7.54-7.9-12.21-6.64s-6.29,4.67-5.39,12.93,1.62,10.95,1.62,14.73-3.59,10.06-9.52,10.95c-5.93.9-14.91-2.87-18.5-13.47-3.59-10.6-3.95-16.7-5.93-19.57-1.98-2.87-5.03-4.31-7.36-2.51s-4.67,5.75-3.41,13.29,2.51,13.65,2.51,19.75-4.13,10.78-11.31,10.6c-7.18-.18-17.6-6.29-20.11-18.68-2.51-12.39-4.86-23.05-3.41-32.68.54-3.59.36-6.64,2.33-10.78,1.98-4.13,4.01-5.9,7.72-6.64,7.18-1.44,11.49,1.8,11.49,1.8Z"/>
        <path class="st3" d="M404.68,257.96c.54-.36,4.67-8.8,14.19-10.06,9.52-1.26,15.44.36,20.47,5.03s8.62,6.29,9.7,5.03,4.13-9.26,19.93-10.47c15.8-1.21,22.27,8.49,28.55,17.29,6.29,8.8,8.26,20.11,10.24,26.58,1.98,6.47,1.44,16.52-6.29,20.83-7.72,4.31-17.06,1.62-19.4-5.75s-3.59-16.34-5.93-21.55c-2.33-5.21-7.54-7.9-12.21-6.64s-6.29,4.67-5.39,12.93,1.62,10.95,1.62,14.73-3.59,10.06-9.52,10.95c-5.93.9-14.91-2.87-18.5-13.47-3.59-10.6-3.95-16.7-5.93-19.57-1.98-2.87-5.03-4.31-7.36-2.51s-4.67,5.75-3.41,13.29,2.51,13.65,2.51,19.75-4.13,10.78-11.31,10.6c-7.18-.18-17.6-6.29-20.11-18.68-2.51-12.39-4.86-23.05-3.41-32.68.54-3.59.36-6.64,2.33-10.78,1.98-4.13,4.01-5.9,7.72-6.64,7.18-1.44,11.49,1.8,11.49,1.8Z"/>
        <path class="st3" d="M403.68,256.96c.54-.36,4.67-8.8,14.19-10.06,9.52-1.26,15.44.36,20.47,5.03s8.62,6.29,9.7,5.03,4.13-9.26,19.93-10.47c15.8-1.21,22.27,8.49,28.55,17.29,6.29,8.8,8.26,20.11,10.24,26.58,1.98,6.47,1.44,16.52-6.29,20.83-7.72,4.31-17.06,1.62-19.4-5.75s-3.59-16.34-5.93-21.55c-2.33-5.21-7.54-7.9-12.21-6.64s-6.29,4.67-5.39,12.93,1.62,10.95,1.62,14.73-3.59,10.06-9.52,10.95c-5.93.9-14.91-2.87-18.5-13.47-3.59-10.6-3.95-16.7-5.93-19.57-1.98-2.87-5.03-4.31-7.36-2.51s-4.67,5.75-3.41,13.29,2.51,13.65,2.51,19.75-4.13,10.78-11.31,10.6c-7.18-.18-17.6-6.29-20.11-18.68-2.51-12.39-4.86-23.05-3.41-32.68.54-3.59.36-6.64,2.33-10.78,1.98-4.13,4.01-5.9,7.72-6.64,7.18-1.44,11.49,1.8,11.49,1.8Z"/>
        <path class="st3" d="M402.68,255.96c.54-.36,4.67-8.8,14.19-10.06,9.52-1.26,15.44.36,20.47,5.03s8.62,6.29,9.7,5.03,4.13-9.26,19.93-10.47c15.8-1.21,22.27,8.49,28.55,17.29,6.29,8.8,8.26,20.11,10.24,26.58,1.98,6.47,1.44,16.52-6.29,20.83-7.72,4.31-17.06,1.62-19.4-5.75s-3.59-16.34-5.93-21.55c-2.33-5.21-7.54-7.9-12.21-6.64s-6.29,4.67-5.39,12.93,1.62,10.95,1.62,14.73-3.59,10.06-9.52,10.95c-5.93.9-14.91-2.87-18.5-13.47-3.59-10.6-3.95-16.7-5.93-19.57-1.98-2.87-5.03-4.31-7.36-2.51s-4.67,5.75-3.41,13.29,2.51,13.65,2.51,19.75-4.13,10.78-11.31,10.6c-7.18-.18-17.6-6.29-20.11-18.68-2.51-12.39-4.86-23.05-3.41-32.68.54-3.59.36-6.64,2.33-10.78,1.98-4.13,4.01-5.9,7.72-6.64,7.18-1.44,11.49,1.8,11.49,1.8Z"/>
        <path class="st3" d="M401.68,254.96c.54-.36,4.67-8.8,14.19-10.06,9.52-1.26,15.44.36,20.47,5.03s8.62,6.29,9.7,5.03,4.13-9.26,19.93-10.47c15.8-1.21,22.27,8.49,28.55,17.29,6.29,8.8,8.26,20.11,10.24,26.58,1.98,6.47,1.44,16.52-6.29,20.83-7.72,4.31-17.06,1.62-19.4-5.75s-3.59-16.34-5.93-21.55c-2.33-5.21-7.54-7.9-12.21-6.64s-6.29,4.67-5.39,12.93,1.62,10.95,1.62,14.73-3.59,10.06-9.52,10.95c-5.93.9-14.91-2.87-18.5-13.47-3.59-10.6-3.95-16.7-5.93-19.57-1.98-2.87-5.03-4.31-7.36-2.51s-4.67,5.75-3.41,13.29,2.51,13.65,2.51,19.75-4.13,10.78-11.31,10.6c-7.18-.18-17.6-6.29-20.11-18.68-2.51-12.39-4.86-23.05-3.41-32.68.54-3.59.36-6.64,2.33-10.78,1.98-4.13,4.01-5.9,7.72-6.64,7.18-1.44,11.49,1.8,11.49,1.8Z"/>
      </g>
      <path class="st15" d="M401.68,254.96c.54-.36,4.67-8.8,14.19-10.06,9.52-1.26,15.44.36,20.47,5.03s8.62,6.29,9.7,5.03,4.13-9.26,19.93-10.47c15.8-1.21,22.27,8.49,28.55,17.29,6.29,8.8,8.26,20.11,10.24,26.58,1.98,6.47,1.44,16.52-6.29,20.83-7.72,4.31-17.06,1.62-19.4-5.75s-3.59-16.34-5.93-21.55c-2.33-5.21-7.54-7.9-12.21-6.64s-6.29,4.67-5.39,12.93,1.62,10.95,1.62,14.73-3.59,10.06-9.52,10.95c-5.93.9-14.91-2.87-18.5-13.47-3.59-10.6-3.95-16.7-5.93-19.57-1.98-2.87-5.03-4.31-7.36-2.51s-4.67,5.75-3.41,13.29,2.51,13.65,2.51,19.75-4.13,10.78-11.31,10.6c-7.18-.18-17.6-6.29-20.11-18.68-2.51-12.39-4.86-23.05-3.41-32.68.54-3.59.36-6.64,2.33-10.78,1.98-4.13,4.01-5.9,7.72-6.64,7.18-1.44,11.49,1.8,11.49,1.8Z"/>
      <path class="st3" d="M401.68,254.96c.54-.36,4.67-8.8,14.19-10.06,9.52-1.26,15.44.36,20.47,5.03s8.62,6.29,9.7,5.03,4.13-9.26,19.93-10.47c15.8-1.21,22.27,8.49,28.55,17.29,6.29,8.8,8.26,20.11,10.24,26.58,1.98,6.47,1.44,16.52-6.29,20.83-7.72,4.31-17.06,1.62-19.4-5.75s-3.59-16.34-5.93-21.55c-2.33-5.21-7.54-7.9-12.21-6.64s-6.29,4.67-5.39,12.93,1.62,10.95,1.62,14.73-3.59,10.06-9.52,10.95c-5.93.9-14.91-2.87-18.5-13.47-3.59-10.6-3.95-16.7-5.93-19.57-1.98-2.87-5.03-4.31-7.36-2.51s-4.67,5.75-3.41,13.29,2.51,13.65,2.51,19.75-4.13,10.78-11.31,10.6c-7.18-.18-17.6-6.29-20.11-18.68-2.51-12.39-4.86-23.05-3.41-32.68.54-3.59.36-6.64,2.33-10.78,1.98-4.13,4.01-5.9,7.72-6.64,7.18-1.44,11.49,1.8,11.49,1.8Z"/>
    </g>
    <g>
      <g>
        <path class="st3" d="M623.28,289.95c-6.41-6.87-10.99-10.07-11.9-13.73-5.48-21.91-16.25-30.21-29.53-33.65-13.28-3.43-20.21-.3-27.92,3.43-8.51,4.12-16.71,16.48-18.77,22.89-2.06,6.41-2.06,9.84-.92,24.28,1.14,14.44,4.81,22.87,19.68,31.8,14.88,8.93,31.13,4.58,39.6,1.14,8.47-3.43,10.53-15.56,11.44-15.56s8.47,9.61,13.5,12.59c5.04,2.98,14.19,3.2,19-8.24,4.81-11.44-7.78-18.08-14.19-24.95ZM577.73,303.68c-6.87,1.83-16.71-3.66-16.94-13.5-.23-9.84,2.06-12.36,3.89-15.56,2.97-5.2,8.47-4.12,13.28-2.75,4.81,1.37,8.47,4.58,8.24,14.65-.23,10.07-1.6,15.34-8.47,17.17Z"/>
        <path class="st3" d="M622.28,288.95c-6.41-6.87-10.99-10.07-11.9-13.73-5.48-21.91-16.25-30.21-29.53-33.65-13.28-3.43-20.21-.3-27.92,3.43-8.51,4.12-16.71,16.48-18.77,22.89-2.06,6.41-2.06,9.84-.92,24.28,1.14,14.44,4.81,22.87,19.68,31.8,14.88,8.93,31.13,4.58,39.6,1.14,8.47-3.43,10.53-15.56,11.44-15.56s8.47,9.61,13.5,12.59c5.04,2.98,14.19,3.2,19-8.24,4.81-11.44-7.78-18.08-14.19-24.95ZM576.73,302.68c-6.87,1.83-16.71-3.66-16.94-13.5-.23-9.84,2.06-12.36,3.89-15.56,2.97-5.2,8.47-4.12,13.28-2.75,4.81,1.37,8.47,4.58,8.24,14.65-.23,10.07-1.6,15.34-8.47,17.17Z"/>
        <path class="st3" d="M621.28,287.95c-6.41-6.87-10.99-10.07-11.9-13.73-5.48-21.91-16.25-30.21-29.53-33.65-13.28-3.43-20.21-.3-27.92,3.43-8.51,4.12-16.71,16.48-18.77,22.89-2.06,6.41-2.06,9.84-.92,24.28,1.14,14.44,4.81,22.87,19.68,31.8,14.88,8.93,31.13,4.58,39.6,1.14,8.47-3.43,10.53-15.56,11.44-15.56s8.47,9.61,13.5,12.59c5.04,2.98,14.19,3.2,19-8.24,4.81-11.44-7.78-18.08-14.19-24.95ZM575.73,301.68c-6.87,1.83-16.71-3.66-16.94-13.5-.23-9.84,2.06-12.36,3.89-15.56,2.97-5.2,8.47-4.12,13.28-2.75,4.81,1.37,8.47,4.58,8.24,14.65-.23,10.07-1.6,15.34-8.47,17.17Z"/>
        <path class="st3" d="M620.28,286.95c-6.41-6.87-10.99-10.07-11.9-13.73-5.48-21.91-16.25-30.21-29.53-33.65-13.28-3.43-20.21-.3-27.92,3.43-8.51,4.12-16.71,16.48-18.77,22.89-2.06,6.41-2.06,9.84-.92,24.28,1.14,14.44,4.81,22.87,19.68,31.8,14.88,8.93,31.13,4.58,39.6,1.14,8.47-3.43,10.53-15.56,11.44-15.56s8.47,9.61,13.5,12.59c5.04,2.98,14.19,3.2,19-8.24,4.81-11.44-7.78-18.08-14.19-24.95ZM574.73,300.68c-6.87,1.83-16.71-3.66-16.94-13.5-.23-9.84,2.06-12.36,3.89-15.56,2.97-5.2,8.47-4.12,13.28-2.75,4.81,1.37,8.47,4.58,8.24,14.65-.23,10.07-1.6,15.34-8.47,17.17Z"/>
        <path class="st3" d="M619.28,285.95c-6.41-6.87-10.99-10.07-11.9-13.73-5.48-21.91-16.25-30.21-29.53-33.65-13.28-3.43-20.21-.3-27.92,3.43-8.51,4.12-16.71,16.48-18.77,22.89-2.06,6.41-2.06,9.84-.92,24.28,1.14,14.44,4.81,22.87,19.68,31.8,14.88,8.93,31.13,4.58,39.6,1.14,8.47-3.43,10.53-15.56,11.44-15.56s8.47,9.61,13.5,12.59c5.04,2.98,14.19,3.2,19-8.24,4.81-11.44-7.78-18.08-14.19-24.95ZM573.73,299.68c-6.87,1.83-16.71-3.66-16.94-13.5-.23-9.84,2.06-12.36,3.89-15.56,2.97-5.2,8.47-4.12,13.28-2.75,4.81,1.37,8.47,4.58,8.24,14.65-.23,10.07-1.6,15.34-8.47,17.17Z"/>
        <path class="st3" d="M618.28,284.95c-6.41-6.87-10.99-10.07-11.9-13.73-5.48-21.91-16.25-30.21-29.53-33.65-13.28-3.43-20.21-.3-27.92,3.43-8.51,4.12-16.71,16.48-18.77,22.89-2.06,6.41-2.06,9.84-.92,24.28,1.14,14.44,4.81,22.87,19.68,31.8,14.88,8.93,31.13,4.58,39.6,1.14,8.47-3.43,10.53-15.56,11.44-15.56s8.47,9.61,13.5,12.59c5.04,2.98,14.19,3.2,19-8.24,4.81-11.44-7.78-18.08-14.19-24.95ZM572.73,298.68c-6.87,1.83-16.71-3.66-16.94-13.5-.23-9.84,2.06-12.36,3.89-15.56,2.97-5.2,8.47-4.12,13.28-2.75,4.81,1.37,8.47,4.58,8.24,14.65-.23,10.07-1.6,15.34-8.47,17.17Z"/>
        <path class="st3" d="M617.28,283.95c-6.41-6.87-10.99-10.07-11.9-13.73-5.48-21.91-16.25-30.21-29.53-33.65-13.28-3.43-20.21-.3-27.92,3.43-8.51,4.12-16.71,16.48-18.77,22.89-2.06,6.41-2.06,9.84-.92,24.28,1.14,14.44,4.81,22.87,19.68,31.8,14.88,8.93,31.13,4.58,39.6,1.14,8.47-3.43,10.53-15.56,11.44-15.56s8.47,9.61,13.5,12.59c5.04,2.98,14.19,3.2,19-8.24,4.81-11.44-7.78-18.08-14.19-24.95ZM571.73,297.68c-6.87,1.83-16.71-3.66-16.94-13.5-.23-9.84,2.06-12.36,3.89-15.56,2.97-5.2,8.47-4.12,13.28-2.75,4.81,1.37,8.47,4.58,8.24,14.65-.23,10.07-1.6,15.34-8.47,17.17Z"/>
        <path class="st3" d="M616.28,282.95c-6.41-6.87-10.99-10.07-11.9-13.73-5.48-21.91-16.25-30.21-29.53-33.65-13.28-3.43-20.21-.3-27.92,3.43-8.51,4.12-16.71,16.48-18.77,22.89-2.06,6.41-2.06,9.84-.92,24.28,1.14,14.44,4.81,22.87,19.68,31.8,14.88,8.93,31.13,4.58,39.6,1.14,8.47-3.43,10.53-15.56,11.44-15.56s8.47,9.61,13.5,12.59c5.04,2.98,14.19,3.2,19-8.24,4.81-11.44-7.78-18.08-14.19-24.95ZM570.73,296.68c-6.87,1.83-16.71-3.66-16.94-13.5-.23-9.84,2.06-12.36,3.89-15.56,2.97-5.2,8.47-4.12,13.28-2.75,4.81,1.37,8.47,4.58,8.24,14.65-.23,10.07-1.6,15.34-8.47,17.17Z"/>
        <path class="st3" d="M615.28,281.95c-6.41-6.87-10.99-10.07-11.9-13.73-5.48-21.91-16.25-30.21-29.53-33.65-13.28-3.43-20.21-.3-27.92,3.43-8.51,4.12-16.71,16.48-18.77,22.89-2.06,6.41-2.06,9.84-.92,24.28,1.14,14.44,4.81,22.87,19.68,31.8,14.88,8.93,31.13,4.58,39.6,1.14,8.47-3.43,10.53-15.56,11.44-15.56s8.47,9.61,13.5,12.59c5.04,2.98,14.19,3.2,19-8.24,4.81-11.44-7.78-18.08-14.19-24.95ZM569.73,295.68c-6.87,1.83-16.71-3.66-16.94-13.5-.23-9.84,2.06-12.36,3.89-15.56,2.97-5.2,8.47-4.12,13.28-2.75,4.81,1.37,8.47,4.58,8.24,14.65-.23,10.07-1.6,15.34-8.47,17.17Z"/>
        <path class="st3" d="M614.28,280.95c-6.41-6.87-10.99-10.07-11.9-13.73-5.48-21.91-16.25-30.21-29.53-33.65-13.28-3.43-20.21-.3-27.92,3.43-8.51,4.12-16.71,16.48-18.77,22.89-2.06,6.41-2.06,9.84-.92,24.28,1.14,14.44,4.81,22.87,19.68,31.8,14.88,8.93,31.13,4.58,39.6,1.14,8.47-3.43,10.53-15.56,11.44-15.56s8.47,9.61,13.5,12.59c5.04,2.98,14.19,3.2,19-8.24,4.81-11.44-7.78-18.08-14.19-24.95ZM568.73,294.68c-6.87,1.83-16.71-3.66-16.94-13.5-.23-9.84,2.06-12.36,3.89-15.56,2.97-5.2,8.47-4.12,13.28-2.75,4.81,1.37,8.47,4.58,8.24,14.65-.23,10.07-1.6,15.34-8.47,17.17Z"/>
        <path class="st3" d="M613.28,279.95c-6.41-6.87-10.99-10.07-11.9-13.73-5.48-21.91-16.25-30.21-29.53-33.65-13.28-3.43-20.21-.3-27.92,3.43-8.51,4.12-16.71,16.48-18.77,22.89-2.06,6.41-2.06,9.84-.92,24.28,1.14,14.44,4.81,22.87,19.68,31.8,14.88,8.93,31.13,4.58,39.6,1.14,8.47-3.43,10.53-15.56,11.44-15.56s8.47,9.61,13.5,12.59c5.04,2.98,14.19,3.2,19-8.24,4.81-11.44-7.78-18.08-14.19-24.95ZM567.73,293.68c-6.87,1.83-16.71-3.66-16.94-13.5-.23-9.84,2.06-12.36,3.89-15.56,2.97-5.2,8.47-4.12,13.28-2.75,4.81,1.37,8.47,4.58,8.24,14.65-.23,10.07-1.6,15.34-8.47,17.17Z"/>
      </g>
      <path class="st0" d="M613.28,279.95c-6.41-6.87-10.99-10.07-11.9-13.73-5.48-21.91-16.25-30.21-29.53-33.65-13.28-3.43-20.21-.3-27.92,3.43-8.51,4.12-16.71,16.48-18.77,22.89-2.06,6.41-2.06,9.84-.92,24.28,1.14,14.44,4.81,22.87,19.68,31.8,14.88,8.93,31.13,4.58,39.6,1.14,8.47-3.43,10.53-15.56,11.44-15.56s8.47,9.61,13.5,12.59c5.04,2.98,14.19,3.2,19-8.24,4.81-11.44-7.78-18.08-14.19-24.95ZM567.73,293.68c-6.87,1.83-16.71-3.66-16.94-13.5-.23-9.84,2.06-12.36,3.89-15.56,2.97-5.2,8.47-4.12,13.28-2.75,4.81,1.37,8.47,4.58,8.24,14.65-.23,10.07-1.6,15.34-8.47,17.17Z"/>
      <path class="st3" d="M613.28,279.95c-6.41-6.87-10.99-10.07-11.9-13.73-5.48-21.91-16.25-30.21-29.53-33.65-13.28-3.43-20.21-.3-27.92,3.43-8.51,4.12-16.71,16.48-18.77,22.89-2.06,6.41-2.06,9.84-.92,24.28,1.14,14.44,4.81,22.87,19.68,31.8,14.88,8.93,31.13,4.58,39.6,1.14,8.47-3.43,10.53-15.56,11.44-15.56s8.47,9.61,13.5,12.59c5.04,2.98,14.19,3.2,19-8.24,4.81-11.44-7.78-18.08-14.19-24.95ZM567.73,293.68c-6.87,1.83-16.71-3.66-16.94-13.5-.23-9.84,2.06-12.36,3.89-15.56,2.97-5.2,8.47-4.12,13.28-2.75,4.81,1.37,8.47,4.58,8.24,14.65-.23,10.07-1.6,15.34-8.47,17.17Z"/>
    </g>
    <g>
      <g>
        <path class="st3" d="M721.75,249.5c-1.31-8.36-7.83-21.67-21.15-27.68-13.32-6.01-23.5-6.53-33.94-4.96-6.71,1.01-20.11,8.36-21.15,11.75-1.04,3.39-1.04,10.44,0,22.19,1.34,15.12,2.61,38.38,3.13,52.22.52,13.84,2.09,39.17,18.54,40.47,16.45,1.31,17.23-17.49,16.97-22.46-.26-4.96.04-20.89.04-20.89,0,0,22.94-4.18,31.82-20.63,8.88-16.45,7.05-21.67,5.74-30.03ZM680.23,264.9c-2.09-1.31-2.94-13.43-1.31-14.36,3.66-2.09,13.07-.93,13.06,7.18-.02,8.24-9.66,8.49-11.75,7.18Z"/>
        <path class="st3" d="M720.75,248.5c-1.31-8.36-7.83-21.67-21.15-27.68-13.32-6.01-23.5-6.53-33.94-4.96-6.71,1.01-20.11,8.36-21.15,11.75-1.04,3.39-1.04,10.44,0,22.19,1.34,15.12,2.61,38.38,3.13,52.22.52,13.84,2.09,39.17,18.54,40.47,16.45,1.31,17.23-17.49,16.97-22.46-.26-4.96.04-20.89.04-20.89,0,0,22.94-4.18,31.82-20.63,8.88-16.45,7.05-21.67,5.74-30.03ZM679.23,263.9c-2.09-1.31-2.94-13.43-1.31-14.36,3.66-2.09,13.07-.93,13.06,7.18-.02,8.24-9.66,8.49-11.75,7.18Z"/>
        <path class="st3" d="M719.75,247.5c-1.31-8.36-7.83-21.67-21.15-27.68-13.32-6.01-23.5-6.53-33.94-4.96-6.71,1.01-20.11,8.36-21.15,11.75-1.04,3.39-1.04,10.44,0,22.19,1.34,15.12,2.61,38.38,3.13,52.22.52,13.84,2.09,39.17,18.54,40.47,16.45,1.31,17.23-17.49,16.97-22.46-.26-4.96.04-20.89.04-20.89,0,0,22.94-4.18,31.82-20.63,8.88-16.45,7.05-21.67,5.74-30.03ZM678.23,262.9c-2.09-1.31-2.94-13.43-1.31-14.36,3.66-2.09,13.07-.93,13.06,7.18-.02,8.24-9.66,8.49-11.75,7.18Z"/>
        <path class="st3" d="M718.75,246.5c-1.31-8.36-7.83-21.67-21.15-27.68-13.32-6.01-23.5-6.53-33.94-4.96-6.71,1.01-20.11,8.36-21.15,11.75-1.04,3.39-1.04,10.44,0,22.19,1.34,15.12,2.61,38.38,3.13,52.22.52,13.84,2.09,39.17,18.54,40.47,16.45,1.31,17.23-17.49,16.97-22.46-.26-4.96.04-20.89.04-20.89,0,0,22.94-4.18,31.82-20.63,8.88-16.45,7.05-21.67,5.74-30.03ZM677.23,261.9c-2.09-1.31-2.94-13.43-1.31-14.36,3.66-2.09,13.07-.93,13.06,7.18-.02,8.24-9.66,8.49-11.75,7.18Z"/>
        <path class="st3" d="M717.75,245.5c-1.31-8.36-7.83-21.67-21.15-27.68-13.32-6.01-23.5-6.53-33.94-4.96-6.71,1.01-20.11,8.36-21.15,11.75-1.04,3.39-1.04,10.44,0,22.19,1.34,15.12,2.61,38.38,3.13,52.22.52,13.84,2.09,39.17,18.54,40.47,16.45,1.31,17.23-17.49,16.97-22.46-.26-4.96.04-20.89.04-20.89,0,0,22.94-4.18,31.82-20.63,8.88-16.45,7.05-21.67,5.74-30.03ZM676.23,260.9c-2.09-1.31-2.94-13.43-1.31-14.36,3.66-2.09,13.07-.93,13.06,7.18-.02,8.24-9.66,8.49-11.75,7.18Z"/>
        <path class="st3" d="M716.75,244.5c-1.31-8.36-7.83-21.67-21.15-27.68-13.32-6.01-23.5-6.53-33.94-4.96-6.71,1.01-20.11,8.36-21.15,11.75-1.04,3.39-1.04,10.44,0,22.19,1.34,15.12,2.61,38.38,3.13,52.22.52,13.84,2.09,39.17,18.54,40.47,16.45,1.31,17.23-17.49,16.97-22.46-.26-4.96.04-20.89.04-20.89,0,0,22.94-4.18,31.82-20.63,8.88-16.45,7.05-21.67,5.74-30.03ZM675.23,259.9c-2.09-1.31-2.94-13.43-1.31-14.36,3.66-2.09,13.07-.93,13.06,7.18-.02,8.24-9.66,8.49-11.75,7.18Z"/>
        <path class="st3" d="M715.75,243.5c-1.31-8.36-7.83-21.67-21.15-27.68-13.32-6.01-23.5-6.53-33.94-4.96-6.71,1.01-20.11,8.36-21.15,11.75-1.04,3.39-1.04,10.44,0,22.19,1.34,15.12,2.61,38.38,3.13,52.22.52,13.84,2.09,39.17,18.54,40.47,16.45,1.31,17.23-17.49,16.97-22.46-.26-4.96.04-20.89.04-20.89,0,0,22.94-4.18,31.82-20.63,8.88-16.45,7.05-21.67,5.74-30.03ZM674.23,258.9c-2.09-1.31-2.94-13.43-1.31-14.36,3.66-2.09,13.07-.93,13.06,7.18-.02,8.24-9.66,8.49-11.75,7.18Z"/>
        <path class="st3" d="M714.75,242.5c-1.31-8.36-7.83-21.67-21.15-27.68-13.32-6.01-23.5-6.53-33.94-4.96-6.71,1.01-20.11,8.36-21.15,11.75-1.04,3.39-1.04,10.44,0,22.19,1.34,15.12,2.61,38.38,3.13,52.22.52,13.84,2.09,39.17,18.54,40.47,16.45,1.31,17.23-17.49,16.97-22.46-.26-4.96.04-20.89.04-20.89,0,0,22.94-4.18,31.82-20.63,8.88-16.45,7.05-21.67,5.74-30.03ZM673.23,257.9c-2.09-1.31-2.94-13.43-1.31-14.36,3.66-2.09,13.07-.93,13.06,7.18-.02,8.24-9.66,8.49-11.75,7.18Z"/>
        <path class="st3" d="M713.75,241.5c-1.31-8.36-7.83-21.67-21.15-27.68-13.32-6.01-23.5-6.53-33.94-4.96-6.71,1.01-20.11,8.36-21.15,11.75-1.04,3.39-1.04,10.44,0,22.19,1.34,15.12,2.61,38.38,3.13,52.22.52,13.84,2.09,39.17,18.54,40.47,16.45,1.31,17.23-17.49,16.97-22.46-.26-4.96.04-20.89.04-20.89,0,0,22.94-4.18,31.82-20.63,8.88-16.45,7.05-21.67,5.74-30.03ZM672.23,256.9c-2.09-1.31-2.94-13.43-1.31-14.36,3.66-2.09,13.07-.93,13.06,7.18-.02,8.24-9.66,8.49-11.75,7.18Z"/>
        <path class="st3" d="M712.75,240.5c-1.31-8.36-7.83-21.67-21.15-27.68-13.32-6.01-23.5-6.53-33.94-4.96-6.71,1.01-20.11,8.36-21.15,11.75-1.04,3.39-1.04,10.44,0,22.19,1.34,15.12,2.61,38.38,3.13,52.22.52,13.84,2.09,39.17,18.54,40.47,16.45,1.31,17.23-17.49,16.97-22.46-.26-4.96.04-20.89.04-20.89,0,0,22.94-4.18,31.82-20.63,8.88-16.45,7.05-21.67,5.74-30.03ZM671.23,255.9c-2.09-1.31-2.94-13.43-1.31-14.36,3.66-2.09,13.07-.93,13.06,7.18-.02,8.24-9.66,8.49-11.75,7.18Z"/>
        <path class="st3" d="M711.75,239.5c-1.31-8.36-7.83-21.67-21.15-27.68-13.32-6.01-23.5-6.53-33.94-4.96-6.71,1.01-20.11,8.36-21.15,11.75-1.04,3.39-1.04,10.44,0,22.19,1.34,15.12,2.61,38.38,3.13,52.22.52,13.84,2.09,39.17,18.54,40.47,16.45,1.31,17.23-17.49,16.97-22.46-.26-4.96.04-20.89.04-20.89,0,0,22.94-4.18,31.82-20.63,8.88-16.45,7.05-21.67,5.74-30.03ZM670.23,254.9c-2.09-1.31-2.94-13.43-1.31-14.36,3.66-2.09,13.07-.93,13.06,7.18-.02,8.24-9.66,8.49-11.75,7.18Z"/>
      </g>
      <path class="st14" d="M711.75,239.5c-1.31-8.36-7.83-21.67-21.15-27.68-13.32-6.01-23.5-6.53-33.94-4.96-6.71,1.01-20.11,8.36-21.15,11.75-1.04,3.39-1.04,10.44,0,22.19,1.34,15.12,2.61,38.38,3.13,52.22.52,13.84,2.09,39.17,18.54,40.47,16.45,1.31,17.23-17.49,16.97-22.46-.26-4.96.04-20.89.04-20.89,0,0,22.94-4.18,31.82-20.63,8.88-16.45,7.05-21.67,5.74-30.03ZM670.23,254.9c-2.09-1.31-2.94-13.43-1.31-14.36,3.66-2.09,13.07-.93,13.06,7.18-.02,8.24-9.66,8.49-11.75,7.18Z"/>
      <path class="st3" d="M711.75,239.5c-1.31-8.36-7.83-21.67-21.15-27.68-13.32-6.01-23.5-6.53-33.94-4.96-6.71,1.01-20.11,8.36-21.15,11.75-1.04,3.39-1.04,10.44,0,22.19,1.34,15.12,2.61,38.38,3.13,52.22.52,13.84,2.09,39.17,18.54,40.47,16.45,1.31,17.23-17.49,16.97-22.46-.26-4.96.04-20.89.04-20.89,0,0,22.94-4.18,31.82-20.63,8.88-16.45,7.05-21.67,5.74-30.03ZM670.23,254.9c-2.09-1.31-2.94-13.43-1.31-14.36,3.66-2.09,13.07-.93,13.06,7.18-.02,8.24-9.66,8.49-11.75,7.18Z"/>
    </g>
  </g>
  <path class="st1" d="M124.95,105.58s-12.16,14.7-9.05,17.53,10.05-.47,16.12-3.11c7.37-3.2,12.65-5.97,13.88-5.11s-.18,22.49,3.52,22.84,13.72-15.44,15.83-16.08,13.37,13.97,16.89,12.73,3.69-8.44,4.05-13.72.7-8.44,1.58-10.2,6.68-3.64,11.61-4.34,15.65-3.17,16.36-5.28-4.41-5.92-7.92-8.64-8.61-7.25-8.72-8.61,11.34-12.84,10.53-14.95c-.45-1.18-5.32-.79-11.89-.79-4.42,0-13.03,1.01-13.93-.06s1.47-7.53,2.61-16.48,1.47-16.2.23-16.31-7.93,4.87-12.01,8.15-9.85,8.38-11.55,8.38-4.42-4.08-7.82-8.27-8.61-10.31-9.74-9.85-2.72,6.23-3.62,11.55-2.38,8.49-3.28,9.06-7.25-.45-11.89-1.02-12.01-2.04-12.69-.45,2.49,8.49,6.8,16.88c4.3,8.38,6.12,11.78,5.66,13.03s-7.82,1.25-12.01,2.15-8.38,2.83-8.27,4.64,6.8,6.23,9.74,8.38,9.27,6.35,9,7.93Z"/>
  <g>
    <g>
      <g class="st17">
        <rect class="st6" x="233.95" y="-1.8" width="267.32" height="174.75"/>
      </g>
      <path class="st4" d="M261.55,75.5c.66-4.07,3.6-6.32,7.01-7.38,2.78-.62,6.39-.69,9.52-1.04,25.93-1.86,37.5,24,17.2,40.91-4.7,3.7-11.69,5.54-17.72,5.7.19,6.54.12,13.4.13,19.94-.37,11.28-14.49,11.69-15.74.65.03-19.83-.43-38.99-.4-58.77ZM284.49,83.14c-2.08-1.79-7.2-.26-7.2-.26,0,4.22-.05,8.17.11,12.38,0,0,4.19.48,6.55-1.41,4.83-3.87,2.61-8.93.54-10.71Z"/>
    </g>
    <g>
      <g class="st10">
        <rect class="st6" x="233.95" y="-1.8" width="267.32" height="174.75"/>
      </g>
      <path class="st4" d="M322.92,69.78c6.65,0,8.93,4.2,8.78,14.37s-.29,17.02,0,24.54,0,14.81,0,14.81c0,0,5.58-.44,13.1-1.11s12.6-.22,13.27,7.3-12.16,9.06-19.24,9.29c-7.08.22-21.67,2.87-22.99-4.86s-1.99-19.01-1.55-32.72-2.21-31.62,8.62-31.62Z"/>
    </g>
    <g>
      <g class="st13">
        <rect class="st6" x="233.95" y="-1.8" width="267.32" height="174.75"/>
      </g>
      <path class="st4" d="M413.67,122.72c-2.21,5.72-7.93,14.08-23.7,14.45-15.46.36-19.91-8.02-22.17-15.78s-3.56-16.19-3.4-24.28.72-18.64,7.56-18.95c5.25-.24,8.13,3.43,8.35,17.01.15,9.37.36,13.48,2.06,19.58,1.5,5.37,6.48,8.88,11.17,7.28,3.15-1.07,6.37-3.53,6.64-11.98.32-10.36-.49-12.95-.65-20.07-.16-7.12-.8-16.47,5.83-17.65,4.74-.84,8.82,2.22,9.84,9.22s.88,10.36,1.17,18.38,1.18,12.74-2.69,22.78Z"/>
    </g>
    <g>
      <g class="st11">
        <rect class="st6" x="233.95" y="-1.8" width="267.32" height="174.75"/>
      </g>
      <path class="st4" d="M447.63,89.94c-.21-2.99,1.17-4.8,6.61-4.54s11.54-1.94,11.41-8.04-5.58-8.04-13.48-8.17c-7.91-.13-12.45,1.82-18.15,8.04s-5.96,10.11-5.58,15.56,2.98,8.69,6.48,12.45,7.26,4.67,16.08,4.67,11.93,1.82,11.8,5.45c-.13,3.63-7.26,7.39-11.28,7.13s-6.61-4.41-11.02-6.09-9.21-.26-11.15,2.2-3.37,7.65,2.2,13.87,17.63,8.43,23.6,7.52,17.76-3.63,21.26-10.37,4.93-14.26,2.72-20.36-6.22-10.89-11.93-14-19.19.13-19.58-5.32Z"/>
    </g>
    <g>
      <g class="st12">
        <rect class="st6" x="233.95" y="-1.8" width="267.32" height="174.75"/>
      </g>
      <path class="st4" d="M374.29,46.69c-.98-7.49-4.59-15.4-7.03-15.4h-.01c-2.5.03-5.87,7.72-6.67,15.23l-15.95-.46c0-.12-1.12-14.65-8.27-14.65-.03,0-.06,0-.09,0-3.11.05-5.51,8.8-5.74,14.57l-15.96.46c-.43-4.26-2.59-11.63-5.84-13.85-.48-.33-1.6-1.1-4.38-.33-2.22.61-3.95,7.77-3.81,13.2l-15.99.48c-.08-2.52-.32-24.72,15.55-29.1,8.24-2.27,14.19.15,17.73,2.59,1.43.99,2.71,2.14,3.84,3.39,3.29-4.28,7.93-7.29,14.34-7.4,6.68-.07,12.34,2.49,16.6,7.49,4.96-6.34,10.83-7.57,14.44-7.62,3.61-.05,9.4,1.01,14.49,7.13,3.67-4.26,8.56-6.72,14.4-7.12,5.46-.37,10.42,1.34,14.34,4.95.2.19.4.38.6.58.11-.12.21-.23.32-.34,3.34-3.46,7.65-5.29,12.48-5.29,19.84,0,27.04,18.23,27.04,30.49h-16s-.07-4.39-1.88-8.44c-1.9-4.24-4.64-6.05-9.16-6.05-.5,0-.67.09-.97.4-2.19,2.25-3.21,9.17-3.14,13.51,0,.21,0,.37.01.48l-15.99.37c0-.15-.01-.34-.01-.56-.15-4.13-1.52-10.99-4.15-13.4-.56-.52-1.16-.82-2.38-.73-6.74.46-6.79,14.1-6.79,14.24l-15.94,1.18Z"/>
    </g>
  </g>
  <path class="st2" d="M633.21,151.8c-6.93-6.95-16.88-14.18-27.92-15.32,0,0,.99-7.69,7.81-13.11,6.82-5.42,14.14-11.4,11.6-18.79-2.54-7.4-10.12-10.44-20.31-5.71-10.19,4.73-16.88,10.46-20.16,15.59-3.28,5.12-6.04,18.07-6.04,18.07,0,0-6.25-.1-12.5,1.63-6.26,1.73-8.6,2.28-12.43,5.06-3.84,2.78-10.54,6.15-15.48,12.65-4.93,6.5-8.17,20.55-6.78,24.57,1.39,4.02,6.27,6.66,9.86,7.44s9.22-.7,11.96-5.79c2.75-5.09,5.71-10.09,9.13-12.53,3.42-2.44,8.7-4.33,8.7-4.33,0,0-1.49,6.43,2.52,15.25,4.01,8.83,14.36,23.56,31.99,21.02,17.62-2.54,20.99-6.05,27.28-15.37,6.29-9.32,7.7-23.38.77-30.33ZM606.1,170.56c-1.54,2.5-4.85,2.12-7.22-.43-2.37-2.54-2.06-6.74-1.42-8.17.8-1.81,6.01-1.31,8.23.87,2.22,2.18,1.95,5.23.41,7.73Z"/>
  <path class="st5" d="M541.01,19.57c1.72-.26,4.34,3.47,7.17,10.86,2.82,7.38,3.91,13,5.21,13.34s7.6,3.6,13.68,5.34,11.73,4.99,11.73,6.08-7.17,4.56-12.59,6.51-9.12,3.04-10.64,4.34-3.26,6.73-5.43,12.81c-2.17,6.08-3.04,13.9-4.78,14.77s-7.38-10.42-9.77-15.85c-2.39-5.43-2.61-8.25-3.69-9.12s-7.82-5.21-12.38-7.38-10.42-5.21-10.21-6.3,7.82-3.91,12.81-5.65,8.47-1.95,9.34-3.26,2.39-6.51,3.26-12.38c.87-5.86,3.47-13.68,6.3-14.11Z"/>
</svg>